<svg width="32" height="33" viewBox="0 0 32 33" fill="none" xmlns="http://www.w3.org/2000/svg">
<path d="M29.9286 17.7716V7.83923C29.9286 7.42613 29.7676 7.05279 29.5106 6.7678C29.7676 6.48281 29.9286 6.10947 29.9286 5.69637C29.9286 4.81014 29.2077 4.08923 28.3214 4.08923C26.9517 4.062 26.1965 5.7879 27.1323 6.76782C26.9098 7.01454 26.7662 7.32882 26.7307 7.67721C24.4189 7.57549 23.1991 6.79608 21.9138 5.97365C20.4662 5.04714 18.9692 4.08923 16 4.08923C13.0308 4.08923 11.5338 5.04714 10.0862 5.97365C8.80088 6.79609 7.58107 7.57549 5.26933 7.67721C5.23379 7.32882 5.09018 7.01454 4.86771 6.7678C5.8082 5.79328 5.04161 4.05667 3.67853 4.08926C2.31602 4.0612 1.54903 5.78751 2.48948 6.76782C2.23243 7.05279 2.07143 7.42613 2.07143 7.83923V17.7716C1.41559 18.3605 1 19.2119 1 20.1607V26.0535C1 26.751 1.4492 27.3401 2.07143 27.5619V29.0941C2.07143 30.0761 2.87055 30.8749 3.85252 30.8749C4.62026 30.8749 5.29931 30.3853 5.54206 29.657L6.20759 27.6607H25.7924L26.4579 29.657C26.7007 30.3853 27.3797 30.8749 28.1475 30.8749C29.1294 30.8749 29.9286 30.0761 29.9286 29.0941V27.5619C30.5508 27.3401 31 26.751 31 26.0535V20.1607C31 19.2119 30.5844 18.3605 29.9286 17.7716ZM27.7857 16.9464V7.83923C27.7975 7.1374 28.8445 7.13349 28.8571 7.83926V17.1339C28.5214 17.0147 28.1618 16.9464 27.7857 16.9464ZM28.3214 5.16066C29.0254 5.17311 29.0253 6.21973 28.3214 6.23209C27.6174 6.21964 27.6175 5.17301 28.3214 5.16066ZM3.67858 5.16066C4.38258 5.17311 4.38248 6.21973 3.67855 6.23209C2.97457 6.21964 2.97467 5.17301 3.67858 5.16066ZM3.14286 7.83923C3.14286 7.54365 3.38325 7.30352 3.67858 7.30352C3.9739 7.30352 4.21429 7.54365 4.21429 7.83923V8.2248C4.21429 8.52091 4.45416 8.76051 4.75 8.76051C7.71919 8.76051 9.2162 7.80261 10.6638 6.8761C12.0423 5.99405 13.3442 5.16066 16 5.16066C21.2773 5.1696 21.4593 8.5531 26.7143 8.74959L26.7143 16.9464H24.5714V15.3392C24.5714 13.8624 23.3697 12.6607 21.8929 12.6607H18.1429C17.2636 12.6607 16.4887 13.0923 16 13.7487C15.5113 13.0923 14.7364 12.6607 13.8571 12.6607H10.1071C8.63027 12.6607 7.42858 13.8624 7.42858 15.3392V16.9464H5.28572V10.9034C5.28572 10.6073 5.04585 10.3677 4.75 10.3677C4.45416 10.3677 4.21429 10.6073 4.21429 10.9034V16.9464C3.83817 16.9464 3.47857 17.0147 3.14286 17.1339V7.83923ZM16.5357 16.9464V15.3392C16.5357 14.453 17.2566 13.7321 18.1429 13.7321H21.8929C22.7791 13.7321 23.5 14.453 23.5 15.3392V16.9464H16.5357ZM8.5 16.9464V15.3392C8.5 14.453 9.22091 13.7321 10.1071 13.7321H13.8571C14.7434 13.7321 15.4643 14.453 15.4643 15.3392V16.9464H8.5ZM4.52557 29.318C4.28473 30.0703 3.13448 29.885 3.14287 29.0941L3.14286 27.6607H5.07809L4.52557 29.318ZM28.1475 29.8035C27.8417 29.8035 27.5712 29.6084 27.4744 29.318L26.9219 27.6607H28.8571V29.0941C28.8571 29.4854 28.5388 29.8035 28.1475 29.8035ZM29.9286 26.0535C29.9286 26.3491 29.6882 26.5892 29.3929 26.5892H2.60715C2.31182 26.5892 2.07143 26.3491 2.07143 26.0535V24.4464H27.7857C28.4821 24.4365 28.4963 23.3876 27.7857 23.3749H2.07143V20.1607C2.07143 18.9788 3.03274 18.0178 4.21429 18.0178H27.7857C28.9673 18.0178 29.9286 18.9788 29.9286 20.1607V26.0535Z" fill="#DD2D4A"/>
</svg>
