<svg width="32" height="33" viewBox="0 0 32 33" fill="none" xmlns="http://www.w3.org/2000/svg">
<path d="M19.527 26.0048L19.8483 26.8564C19.958 27.147 20.2825 27.2937 20.5732 27.184C20.8639 27.0743 21.0105 26.7498 20.9008 26.4591L19.059 21.5787C19.0571 21.5735 19.0551 21.5683 19.053 21.5633C18.9485 21.3093 18.7036 21.1453 18.429 21.1453C18.4289 21.1453 18.4286 21.1453 18.4284 21.1453C18.1536 21.1455 17.9087 21.31 17.8046 21.5643C17.8028 21.5687 17.8011 21.5729 17.7995 21.5773L15.9408 26.4576C15.8302 26.7479 15.9759 27.0728 16.2662 27.1834C16.3321 27.2085 16.3998 27.2204 16.4664 27.2204C16.693 27.2204 16.9067 27.0824 16.9921 26.858L17.317 26.0048H19.527ZM18.4271 23.0903L19.1024 24.8798H17.7455L18.4271 23.0903Z" fill="#DD2D4A"/>
<path d="M14.2229 22.2928C14.5335 22.2928 14.7854 22.041 14.7854 21.7303C14.7854 21.4197 14.5335 21.1678 14.2229 21.1678H12.1562C11.8456 21.1678 11.5938 21.4197 11.5938 21.7303V26.6351C11.5938 26.9458 11.8456 27.1976 12.1562 27.1976H14.2229C14.5335 27.1976 14.7854 26.9458 14.7854 26.6351C14.7854 26.3244 14.5335 26.0726 14.2229 26.0726H12.7187V24.7452H14.0705C14.3812 24.7452 14.633 24.4934 14.633 24.1827C14.633 23.8721 14.3812 23.6202 14.0705 23.6202H12.7187V22.2928H14.2229Z" fill="#DD2D4A"/>
<path d="M8.28314 27.2203H8.28455C8.59454 27.2203 8.84621 26.9694 8.84699 26.6592L8.85279 24.2969L10.3302 22.0272C10.4997 21.7669 10.426 21.4184 10.1657 21.249C9.90539 21.0795 9.55692 21.1531 9.38739 21.4135L8.28995 23.0994L7.18053 21.4003C7.01066 21.1402 6.66236 21.0669 6.40198 21.2369C6.14188 21.4067 6.0687 21.7553 6.23857 22.0154L7.72779 24.2961L7.722 26.6564C7.72121 26.9671 7.97242 27.2196 8.28314 27.2203Z" fill="#DD2D4A"/>
<path d="M25.9101 22.9942C25.9101 21.9747 25.0481 21.1453 23.9884 21.1453H22.673C22.6727 21.1453 22.6724 21.1453 22.6722 21.1453C22.6719 21.1453 22.6717 21.1453 22.6714 21.1453C22.3608 21.1453 22.1089 21.3971 22.1089 21.7078V26.6578C22.1089 26.9684 22.3608 27.2203 22.6714 27.2203C22.982 27.2203 23.2339 26.9684 23.2339 26.6578V25.1075L24.9254 27.0294C25.0366 27.1557 25.1918 27.2203 25.3479 27.2203C25.4799 27.2203 25.6124 27.1741 25.7193 27.08C25.9525 26.8748 25.9752 26.5193 25.7699 26.2861L24.4518 24.7885C25.2883 24.5884 25.9101 23.8601 25.9101 22.9942ZM23.9884 23.7182C23.8157 23.7182 23.5126 23.7194 23.2415 23.7208C23.2401 23.4552 23.238 22.5476 23.2373 22.2703H23.9884C24.4204 22.2703 24.7852 22.6018 24.7852 22.9942C24.7851 23.3867 24.4203 23.7182 23.9884 23.7182Z" fill="#DD2D4A"/>
<path d="M29.0273 24.3842L30.3835 17.958C30.4252 17.7901 30.3872 17.6123 30.2806 17.476C30.1741 17.3397 30.0106 17.26 29.8376 17.26H26.0665C26.1898 16.7983 26.2524 16.322 26.2524 15.8366V9.45352C26.2524 6.40511 23.7723 3.92505 20.724 3.92505C17.6755 3.92505 15.1954 6.40511 15.1954 9.45352V15.8366C15.1954 16.3222 15.258 16.7984 15.3813 17.26H12.6885V6.06255C12.6885 4.88394 11.7296 3.92505 10.551 3.92505H7.94228C6.76367 3.92505 5.80478 4.88394 5.80478 6.06255C5.80478 7.24115 6.76367 8.20004 7.94228 8.20004H8.41348V17.26H2.1626C1.98957 17.26 1.82617 17.3397 1.71952 17.476C1.61292 17.6123 1.57501 17.79 1.61664 17.958L2.97288 24.3841L1.61928 30.3969C1.574 30.5659 1.60989 30.7462 1.71637 30.885C1.82285 31.0237 1.98777 31.105 2.1626 31.105H13.4974C13.808 31.105 14.0599 30.8532 14.0599 30.5425C14.0599 30.2319 13.808 29.98 13.4974 29.98H2.89559L4.09709 24.5351C4.12173 24.4431 4.12263 24.3464 4.09973 24.2541L2.8817 18.385H29.1185L27.9004 24.2541C27.8775 24.3465 27.8784 24.4431 27.9031 24.5351L29.1046 29.98H18.5599C18.2493 29.98 17.9974 30.2319 17.9974 30.5425C17.9974 30.8532 18.2493 31.105 18.5599 31.105H29.8376C30.0124 31.105 30.1774 31.0237 30.2839 30.885C30.3903 30.7463 30.4262 30.5659 30.3809 30.3969L29.0273 24.3842ZM16.3204 15.8366V9.45352C16.3204 7.02543 18.2958 5.05005 20.724 5.05005C23.152 5.05005 25.1274 7.02543 25.1274 9.45352V15.8366C25.1274 16.326 25.047 16.8033 24.8902 17.26H22.6282C22.9259 16.8629 23.1024 16.3699 23.1024 15.8366V9.45352C23.1024 8.14205 22.0354 7.07505 20.724 7.07505C19.4124 7.07505 18.3454 8.14205 18.3454 9.45352V15.8366C18.3454 16.3699 18.5219 16.8629 18.8196 17.26H16.5578C16.4011 16.8034 16.3204 16.3262 16.3204 15.8366ZM19.4704 15.8366V9.45352C19.4704 8.76232 20.0328 8.20004 20.724 8.20004C21.4151 8.20004 21.9774 8.76238 21.9774 9.45352V15.8366C21.9774 16.5278 21.4151 17.09 20.724 17.09C20.0328 17.09 19.4704 16.5278 19.4704 15.8366ZM8.97598 7.07505H7.94228C7.384 7.07505 6.92978 6.62083 6.92978 6.06255C6.92978 5.50427 7.384 5.05005 7.94228 5.05005H10.551C11.1093 5.05005 11.5635 5.50427 11.5635 6.06255V17.26H9.53848V7.63755C9.53848 7.32688 9.2866 7.07505 8.97598 7.07505Z" fill="#DD2D4A"/>
<path d="M16.0288 31.1053C16.3395 31.1053 16.5913 30.8535 16.5913 30.5428C16.5913 30.2322 16.3395 29.9803 16.0288 29.9803C15.7181 29.9803 15.4663 30.2322 15.4663 30.5428C15.4663 30.8535 15.7181 31.1053 16.0288 31.1053Z" fill="#DD2D4A"/>
</svg>
