<svg width="30" height="31" viewBox="0 0 30 31" fill="none" xmlns="http://www.w3.org/2000/svg">
<g clip-path="url(#clip0_5368_10538)">
<path d="M11.6276 16.4932C10.2919 16.7269 8.99438 17.1422 7.77117 17.7274C7.64613 17.7939 7.55252 17.9072 7.51081 18.0426C7.4691 18.1779 7.48268 18.3243 7.5486 18.4496C7.61451 18.575 7.72739 18.6692 7.86254 18.7115C7.99769 18.7539 8.14411 18.741 8.26978 18.6757C8.59208 18.5064 16.2186 14.6088 20.4691 20.8941C20.5499 21.0087 20.6725 21.0871 20.8105 21.1123C20.9485 21.1376 21.0908 21.1077 21.207 21.0291C21.3232 20.9505 21.4039 20.8295 21.4319 20.692C21.4598 20.5546 21.4327 20.4116 21.3564 20.2939C20.4811 18.9461 19.2568 17.8608 17.8138 17.1532C18.2914 15.0612 19.6533 14.4123 19.711 14.3859C19.7844 14.3537 19.8496 14.3054 19.9018 14.2446C19.9541 14.1838 19.992 14.112 20.0129 14.0346C20.4272 12.6182 20.4929 11.1227 20.2045 9.67539C19.9161 8.22811 19.282 6.87202 18.3564 5.72269C17.7961 5.09987 17.5966 4.71742 17.0358 5.15129C16.7517 5.51829 16.93 5.79921 17.2676 6.10533C16.9875 6.60551 16.5874 7.02814 16.1032 7.33513C15.6191 7.64213 15.0662 7.82384 14.4943 7.86389L12.5446 7.98712C12.4351 7.99408 12.3252 7.9787 12.2218 7.94192C12.1184 7.90514 12.0235 7.84772 11.9429 7.77315C11.8624 7.69858 11.7978 7.60841 11.7531 7.50812C11.7085 7.40783 11.6847 7.29951 11.6832 7.18974C11.6884 5.66879 12.0031 3.60632 13.4738 2.41654C14.0246 1.99657 14.716 1.80489 15.4045 1.88132L19.0355 2.22401C21.543 2.26622 24.5919 8.50595 25.8655 14.3929C25.8971 14.53 25.9812 14.6492 26.0998 14.7248C26.2185 14.8004 26.3621 14.8264 26.4996 14.7971C26.6372 14.7677 26.7578 14.6855 26.8353 14.5681C26.9128 14.4507 26.941 14.3076 26.9139 14.1695C25.5599 7.81709 23.1035 4.15858 21.7625 2.5458C21.4388 2.15197 21.04 1.82642 20.5894 1.58808C20.1388 1.34974 19.6453 1.20337 19.1375 1.15748L15.5034 0.81425C14.5354 0.706665 13.5639 0.983526 12.7981 1.58521C11.002 3.03789 10.6177 5.43286 10.6117 7.18796C10.6139 7.44395 10.6681 7.69683 10.7711 7.93121C10.8741 8.16559 11.0237 8.37658 11.2107 8.55136C11.3978 8.72613 11.6184 8.86104 11.8593 8.94789C12.1001 9.03474 12.3561 9.0717 12.6116 9.05654L14.5611 8.93335C15.2384 8.89072 15.897 8.69359 16.4863 8.35708C17.0757 8.02057 17.5801 7.5536 17.9611 6.99196C18.5919 7.94524 19.0137 9.02129 19.1987 10.1493C19.3837 11.2773 19.3277 12.4317 19.0345 13.5365C17.8972 14.2733 17.0976 15.4299 16.81 16.7541C15.5801 16.3667 14.2869 16.2207 13.0016 16.3243C7.61493 10.8117 2.39619 14.7148 2.34344 14.7551C2.23362 14.8426 2.16255 14.9698 2.14555 15.1092C2.12854 15.2486 2.16695 15.3891 2.25251 15.5005C2.33807 15.6118 2.46393 15.6852 2.60302 15.7047C2.7421 15.7242 2.88328 15.6883 2.99616 15.6047C3.1723 15.4701 7.15883 12.5277 11.6276 16.4932Z" fill="#DD2D4A"/>
<path d="M27.3206 16.3409C27.2969 16.202 27.2194 16.0781 27.105 15.996C26.9906 15.9138 26.8484 15.8801 26.7092 15.9021C26.5701 15.924 26.4452 15.9999 26.3616 16.1133C26.2781 16.2267 26.2425 16.3684 26.2627 16.5078C26.5524 18.3831 26.7292 20.274 26.7922 22.1704C26.8161 22.8139 26.6484 23.4499 26.3102 23.9979C25.9721 24.5459 25.4788 24.981 24.893 25.2482C20.6163 27.1925 12.6419 29.7756 6.55192 25.7067C7.21821 25.0482 8.10351 24.658 9.03905 24.6104C9.17969 24.612 9.31529 24.5582 9.4166 24.4606C9.5179 24.363 9.57678 24.2295 9.58052 24.0889C9.58426 23.9483 9.53256 23.8119 9.43659 23.7091C9.34061 23.6063 9.20806 23.5453 9.06754 23.5394C7.85829 23.563 6.70406 24.0491 5.84225 24.8976C4.64097 26.077 4.04426 27.8838 4.06859 30.2686C4.072 30.4094 4.13069 30.5432 4.23196 30.641C4.33324 30.7389 4.46896 30.7929 4.60978 30.7914C4.75059 30.79 4.88517 30.7332 4.98442 30.6333C5.08366 30.5334 5.13959 30.3984 5.14011 30.2576C5.07064 28.9775 5.33792 27.7015 5.9153 26.5569C11.6085 30.6441 20.2798 28.6557 25.3377 26.2228C26.1166 25.868 26.7724 25.2898 27.222 24.5615C27.6716 23.8332 27.8946 22.9878 27.8627 22.1325C27.7984 20.1928 27.6174 18.2588 27.3206 16.3409Z" fill="#DD2D4A"/>
</g>
<defs>
<clipPath id="clip0_5368_10538">
<rect width="30" height="30" fill="white" transform="translate(0 0.796753)"/>
</clipPath>
</defs>
</svg>
