<svg width="23" height="24" viewBox="0 0 23 24" fill="none" xmlns="http://www.w3.org/2000/svg">
<g clip-path="url(#clip0_5368_4004)">
<path d="M8.36658 17.0615C7.09809 17.0615 6.06982 18.0898 6.06982 19.3583C6.06982 20.6268 7.09814 21.655 8.36658 21.655C9.63507 21.655 10.6633 20.6267 10.6633 19.3583C10.6634 18.0898 9.63507 17.0615 8.36658 17.0615ZM8.36658 20.6343C7.66187 20.6343 7.09062 20.063 7.09062 19.3583C7.09062 18.6536 7.66187 18.0824 8.36658 18.0824C9.07129 18.0824 9.64254 18.6536 9.64254 19.3583C9.64259 20.063 9.07129 20.6343 8.36658 20.6343Z" fill="#DD2D4A"/>
<path d="M18.0729 17.0615C16.8044 17.0615 15.7761 18.0898 15.7761 19.3583C15.7761 20.6268 16.8044 21.655 18.0729 21.655C19.3413 21.655 20.3696 20.6267 20.3696 19.3583C20.3696 18.0898 19.3414 17.0615 18.0729 17.0615ZM18.0729 20.6343C17.3682 20.6343 16.7969 20.063 16.7969 19.3583C16.7969 18.6536 17.3682 18.0824 18.0729 18.0824C18.7776 18.0824 19.3488 18.6536 19.3488 19.3583C19.3489 20.063 18.7776 20.6343 18.0729 20.6343Z" fill="#DD2D4A"/>
<path d="M22.2494 5.92408C22.1431 5.80797 21.9977 5.73529 21.8411 5.7199L5.2278 5.49023L4.76844 4.08663C4.44484 3.14834 3.56619 2.5149 2.57373 2.50439H0.863911C0.582019 2.50439 0.353516 2.7329 0.353516 3.01479C0.353516 3.29668 0.582019 3.52519 0.863911 3.52519H2.57373C3.12867 3.53745 3.61733 3.89378 3.7987 4.41839L7.0397 14.1924L6.78453 14.7794C6.4999 15.5134 6.58538 16.3394 7.0142 16.9996C7.43892 17.648 8.15345 18.0481 8.9282 18.0714H18.1347C18.4166 18.0714 18.6451 17.8429 18.6451 17.561C18.6451 17.2791 18.4166 17.0506 18.1347 17.0506H8.92815C8.49063 17.0397 8.0879 16.8095 7.85632 16.4382C7.62732 16.0713 7.58028 15.6194 7.72873 15.2132L7.93291 14.7538L18.6767 13.631C19.8568 13.501 20.8276 12.6427 21.1011 11.4873L22.3261 6.35783C22.3813 6.21012 22.352 6.044 22.2494 5.92408ZM20.1058 11.2577C19.9401 12.0014 19.3087 12.55 18.5491 12.6102L7.93291 13.7076L5.55956 6.51102L21.2031 6.74069L20.1058 11.2577Z" fill="#DD2D4A"/>
</g>
<defs>
<clipPath id="clip0_5368_4004">
<rect width="22.71" height="22.71" fill="white" transform="translate(0 0.64502)"/>
</clipPath>
</defs>
</svg>
