<svg width="40" height="41" viewBox="0 0 40 41" fill="none" xmlns="http://www.w3.org/2000/svg">
<g clip-path="url(#clip0_5368_10476)">
<path d="M31.8614 9.9219C28.7086 6.76907 24.5173 5.0332 20.0586 5.0332C15.5995 5.0332 11.4087 6.76907 8.2554 9.9219C5.10214 13.0752 3.3667 17.266 3.3667 21.7251C3.3667 25.8381 4.8454 29.722 7.54649 32.7747L3.90785 39.0642C3.71839 39.3933 3.74053 39.8063 3.97513 40.1133C4.15906 40.3535 4.43836 40.4871 4.73385 40.4871C4.81219 40.4871 4.89011 40.4761 4.96845 40.4595L15.488 37.7861C16.9556 38.2046 18.496 38.4166 20.0642 38.4166C21.6323 38.4166 23.1612 38.1991 24.6293 37.7861L35.1207 40.4595C35.199 40.4816 35.2769 40.4871 35.3553 40.4871C35.6452 40.4871 35.9301 40.3535 36.114 40.1133C36.3431 39.8063 36.3708 39.3933 36.1809 39.0642L32.5537 32.8028C35.2714 29.7445 36.7616 25.8491 36.7616 21.7251C36.7501 17.266 35.0147 13.0752 31.8614 9.9219ZM6.67622 38.0709L8.93067 34.1755C10.0079 35.1412 11.1962 35.9557 12.4578 36.6033L6.67622 38.0709ZM5.2584 21.7251C5.2584 13.5661 11.894 6.92533 20.0586 6.92533C28.2232 6.92533 34.8529 13.5605 34.8529 21.7251C34.8529 25.6763 33.2958 29.2702 30.7676 31.9266C30.7063 31.9768 30.6561 32.0326 30.6058 32.0884C28.904 33.8183 26.7832 35.1352 24.4057 35.8663C24.3389 35.8777 24.2776 35.8999 24.2163 35.9225C22.8934 36.3074 21.4981 36.5194 20.0531 36.5194C11.8996 36.5249 5.2584 29.8842 5.2584 21.7251ZM27.648 36.6033C28.904 35.9612 30.0813 35.1522 31.1585 34.1921L33.4018 38.0654L27.648 36.6033Z" fill="#DD2D4A"/>
<path d="M36.3207 2.33778C33.9155 0.312393 30.5447 -0.0784651 27.7376 1.34446C27.1854 1.62377 26.7945 2.17599 26.7277 2.77888C26.6664 3.32557 26.8448 3.86715 27.2186 4.25759C27.2633 4.31336 27.308 4.36914 27.3693 4.41384L35.8243 11.5183C36.1534 11.7971 36.5664 11.9423 36.996 11.9423C37.1803 11.9423 37.3643 11.9142 37.5431 11.864C38.14 11.6856 38.6033 11.2279 38.7817 10.6365C39.6915 7.61734 38.7259 4.3636 36.3207 2.33778ZM35.0988 3.78881C36.9066 5.31265 37.6432 7.7455 36.9849 10.017L28.6977 3.0633C28.6807 3.04669 28.6641 3.03009 28.6475 3.01306C30.7623 1.96396 33.2905 2.2654 35.0988 3.78881Z" fill="#DD2D4A"/>
<path d="M4.24862 11.5012L12.7091 4.41934C13.189 4.01783 13.4402 3.3928 13.3729 2.77884C13.3005 2.15934 12.9267 1.62372 12.374 1.34442C9.55586 -0.0840422 6.1795 0.29532 3.77985 2.3156C1.37467 4.34142 0.403488 7.59473 1.3189 10.6139C1.49729 11.2057 1.96053 11.6634 2.55789 11.8418C2.73629 11.892 2.91468 11.9197 3.09351 11.9197C3.51204 11.9197 3.9195 11.775 4.24862 11.5012ZM5.00181 3.76663C6.79899 2.25429 9.32126 1.95838 11.4476 3.00195L3.10458 9.98331C2.45741 7.71778 3.19399 5.2845 5.00181 3.76663Z" fill="#DD2D4A"/>
<path d="M20.9963 19.2024V10.8539C20.9963 10.3293 20.5722 9.90527 20.0472 9.90527C19.5227 9.90527 19.0986 10.3293 19.0986 10.8539V19.2139C18.8197 19.3199 18.5574 19.4762 18.3343 19.6656L13.4065 16.8198C12.9543 16.5575 12.374 16.7138 12.1117 17.1655C11.8494 17.6177 12.0057 18.198 12.4579 18.4603L17.3968 21.3121C17.3742 21.4458 17.3632 21.5854 17.3632 21.7306C17.3632 23.2149 18.574 24.4262 20.0587 24.4262C21.5429 24.4262 22.7538 23.2149 22.7538 21.7306C22.7538 20.57 22.0228 19.5822 20.9963 19.2024Z" fill="#DD2D4A"/>
</g>
<defs>
<clipPath id="clip0_5368_10476">
<rect width="40" height="40" fill="white" transform="translate(0 0.487305)"/>
</clipPath>
</defs>
</svg>
