<svg width="40" height="41" viewBox="0 0 40 41" fill="none" xmlns="http://www.w3.org/2000/svg">
<g clip-path="url(#clip0_5368_10487)">
<path d="M39.9375 29.3959L34.5518 16.0653C34.6321 15.7673 34.5475 15.4365 34.3038 15.2146L23.726 5.57645C23.6694 5.27131 23.4484 5.00812 23.1307 4.91449L8.24695 0.522073C8.02923 0.458072 7.79527 0.483052 7.59699 0.591869C7.39838 0.700767 7.25127 0.884522 7.18809 1.10216L0.345545 24.8033C-0.943274 29.2683 1.49436 33.9558 5.80564 35.4518C7.21291 38.5238 10.2341 40.4873 13.6123 40.4873C13.6123 40.4873 13.6123 40.4873 13.6128 40.4873C14.7297 40.4873 15.8244 40.2687 16.8666 39.8382L39.4734 30.5014C39.9055 30.3235 40.1125 29.8298 39.9375 29.3959ZM23.2637 7.50372L32.5352 15.9061L16.7464 33.6189C15.4399 35.0841 13.5719 35.9244 11.6209 35.9244C11.6205 35.9244 11.6205 35.9244 11.6205 35.9244C11.2851 35.9244 10.339 35.8034 10.1978 35.7732C13.3235 35.1706 15.9519 32.8288 16.8648 29.6677L23.2637 7.50372ZM6.67413 33.9439C3.01804 32.8642 0.912811 28.9754 1.98122 25.2753L8.58613 2.3971L21.8374 6.30747L15.2292 29.1957C14.3745 32.1569 11.6517 34.2248 8.60817 34.2248C7.95691 34.2248 7.30613 34.13 6.67413 33.9439ZM16.2166 38.2657C15.3817 38.6106 14.5053 38.7852 13.6127 38.7852H13.6123C12.0427 38.7852 10.5687 38.2549 9.38687 37.3298C9.41209 37.3366 10.7413 37.6514 11.6205 37.6265C11.6205 37.6265 11.6205 37.6265 11.6209 37.6265C14.0565 37.6265 16.3882 36.5785 18.0172 34.7508L33.3264 17.5766L38.043 29.2505L16.2166 38.2657Z" fill="#DD2D4A"/>
<path d="M8.92827 26.116C7.98394 25.8374 6.99496 26.3855 6.71929 27.3402C6.44361 28.2951 6.98574 29.2949 7.93006 29.5736C8.87439 29.8524 9.86337 29.3042 10.139 28.3494C10.4147 27.3946 9.8726 26.3947 8.92827 26.116Z" fill="#DD2D4A"/>
<line x1="5.81421" y1="10.1164" x2="20.2142" y2="14.1164" stroke="#DD2D4A" stroke-width="1.6"/>
<line x1="3.41431" y1="18.1164" x2="17.8143" y2="22.1164" stroke="#DD2D4A" stroke-width="1.6"/>
</g>
<defs>
<clipPath id="clip0_5368_10487">
<rect width="40" height="40" fill="white" transform="translate(0 0.487305)"/>
</clipPath>
</defs>
</svg>
