<svg width="30" height="31" viewBox="0 0 30 31" fill="none" xmlns="http://www.w3.org/2000/svg">
<g clip-path="url(#clip0_5368_10543)">
<path d="M14.9997 18.8987C14.171 18.8987 13.394 18.5776 12.8088 17.9923C12.2235 17.407 11.9023 16.6301 11.9023 15.8013C11.9023 14.9726 12.2235 14.1957 12.8088 13.6104C13.394 13.0251 14.171 12.704 14.9997 12.704C15.8284 12.704 16.6053 13.0251 17.1906 13.6104C17.7759 14.1957 18.097 14.9726 18.097 15.8013C18.097 16.6301 17.7759 17.407 17.1906 17.9923C16.6053 18.5776 15.8284 18.8987 14.9997 18.8987ZM14.9997 13.7295C14.4455 13.7295 13.9275 13.9471 13.5391 14.3355C13.1506 14.724 12.9331 15.2419 12.9331 15.7962C12.9331 16.3504 13.1506 16.8683 13.5391 17.2568C13.9275 17.6452 14.4455 17.8628 14.9997 17.8628C15.5539 17.8628 16.0719 17.6452 16.4603 17.2568C16.8488 16.8683 17.0663 16.3504 17.0663 15.7962C17.0663 15.2419 16.8488 14.724 16.4603 14.3355C16.0719 13.9471 15.5539 13.7295 14.9997 13.7295Z" fill="#DD2D4A"/>
<path d="M17.8742 15.5423L17.1439 14.812C19.7958 12.1601 22.3856 13.0043 24.4677 13.6828C26.0941 14.2112 27.13 14.496 27.9536 13.6725C30.9525 10.6735 26.3634 5.91357 25.83 5.38008C24.7682 4.31828 23.5302 3.64494 22.339 3.47401C20.868 3.26683 19.485 3.8055 18.2109 5.07448C15.3414 7.94394 15.2586 13.1545 15.2586 13.2063L14.2227 13.196C14.2227 12.9629 14.3107 7.51404 17.4806 4.34417C18.9723 2.85247 20.7074 2.19467 22.484 2.44847C23.898 2.65047 25.3431 3.4274 26.5603 4.64458C29.3002 7.38455 31.5015 11.5851 28.6839 14.4028C27.3734 15.7132 25.7315 15.1797 24.1466 14.6618C22.1473 14.0092 20.0755 13.3358 17.8742 15.5371V15.5423Z" fill="#DD2D4A"/>
<path d="M12.3998 16.5783C12.1667 16.5783 6.71787 16.4902 3.548 13.3204C0.310803 10.0832 1.57978 6.50412 3.84841 4.24067C6.58838 1.49553 10.789 -0.705765 13.6066 2.11189C14.917 3.42231 14.3836 5.06422 13.8656 6.64915C13.213 8.64844 12.5396 10.7203 14.7409 12.9215L14.0106 13.6519C11.3587 10.9999 12.203 8.41019 12.8815 6.32802C13.4098 4.70165 13.6947 3.66575 12.8711 2.8422C9.87219 -0.156736 5.11222 4.43232 4.57873 4.96581C3.65159 5.89294 0.885729 9.18711 4.27831 12.5849C7.15295 15.4595 12.3584 15.5372 12.4102 15.5372L12.3998 16.5731V16.5783Z" fill="#DD2D4A"/>
<path d="M8.27666 29.2007C6.44312 29.2007 4.73387 28.2321 3.44417 26.9424C0.70421 24.2025 -1.49708 20.0019 1.32057 17.1842C2.63099 15.8738 4.2729 16.4073 5.85783 16.9253C7.8623 17.5779 9.92893 18.2512 12.1302 16.0499L12.8605 16.7802C10.2086 19.4322 7.61887 18.5879 5.5367 17.9094C3.91033 17.3811 2.87443 17.0962 2.05088 17.9197C0.958007 19.0126 0.745646 20.4473 1.4138 22.1877C2.1234 24.0367 3.58402 25.6165 4.17449 26.2121C5.10162 27.1393 8.39579 29.9051 11.7936 26.5125C14.663 23.6431 14.7459 18.4325 14.7459 18.3807L15.7818 18.3911C15.7818 18.6241 15.6937 24.073 12.5239 27.2429C11.1254 28.6413 9.66478 29.1955 8.27666 29.1955V29.2007Z" fill="#DD2D4A"/>
<path d="M19.5423 30.8013C18.3354 30.8013 17.2736 30.3558 16.3931 29.4805C15.0827 28.1701 15.6162 26.5282 16.1341 24.9432C16.7867 22.9439 17.4601 20.8721 15.2588 18.6708L15.9891 17.9405C18.641 20.5924 17.7968 23.1822 17.1182 25.2644C16.5899 26.8907 16.3051 27.9266 17.1286 28.7502C18.2215 29.8431 19.6562 30.0554 21.3965 29.3873C23.2456 28.6777 24.8254 27.2171 25.421 26.6266C26.3481 25.6995 29.114 22.4053 25.7214 19.0075C22.8468 16.1329 17.6414 16.0552 17.5896 16.0552L17.5999 15.0193C17.833 15.0193 23.2819 15.1073 26.4517 18.2772C29.6889 21.5144 28.4199 25.0934 26.1513 27.3569C25.5091 27.9992 23.7998 29.5737 21.7643 30.3507C20.9822 30.6511 20.2363 30.8013 19.5423 30.8013Z" fill="#DD2D4A"/>
</g>
<defs>
<clipPath id="clip0_5368_10543">
<rect width="30" height="30" fill="white" transform="translate(0 0.796753)"/>
</clipPath>
</defs>
</svg>
