<svg width="19" height="20" viewBox="0 0 19 20" fill="none" xmlns="http://www.w3.org/2000/svg">
<path d="M9.49903 1.72058C7.85497 1.72058 6.24783 2.2081 4.88085 3.12149C3.51387 4.03488 2.44843 5.33311 1.81928 6.85203C1.19013 8.37094 1.02551 10.0423 1.34625 11.6548C1.66699 13.2672 2.45868 14.7484 3.6212 15.9109C4.78373 17.0734 6.26487 17.8651 7.87734 18.1859C9.48981 18.5066 11.1612 18.342 12.6801 17.7128C14.199 17.0837 15.4972 16.0182 16.4106 14.6513C17.324 13.2843 17.8115 11.6771 17.8115 10.0331C17.8115 7.82847 16.9357 5.71415 15.3769 4.15526C13.818 2.59636 11.7036 1.72058 9.49903 1.72058ZM9.20215 4.98621C9.3783 4.98621 9.55049 5.03844 9.69696 5.1363C9.84342 5.23417 9.95757 5.37326 10.025 5.536C10.0924 5.69874 10.11 5.87782 10.0757 6.05058C10.0413 6.22335 9.95648 6.38204 9.83192 6.5066C9.70736 6.63115 9.54867 6.71598 9.37591 6.75034C9.20314 6.78471 9.02407 6.76707 8.86132 6.69966C8.69858 6.63225 8.55949 6.5181 8.46162 6.37164C8.36376 6.22517 8.31153 6.05298 8.31153 5.87683C8.31153 5.64062 8.40536 5.41409 8.57239 5.24706C8.73941 5.08004 8.96594 4.98621 9.20215 4.98621ZM10.6865 14.4862H8.31153C8.15406 14.4862 8.00303 14.4237 7.89168 14.3123C7.78033 14.201 7.71778 14.0499 7.71778 13.8925C7.71778 13.735 7.78033 13.584 7.89168 13.4726C8.00303 13.3613 8.15406 13.2987 8.31153 13.2987H8.90528V9.14246H8.31153C8.15406 9.14246 8.00303 9.0799 7.89168 8.96855C7.78033 8.8572 7.71778 8.70618 7.71778 8.54871C7.71778 8.39123 7.78033 8.24021 7.89168 8.12886C8.00303 8.01751 8.15406 7.95496 8.31153 7.95496H9.49903C9.6565 7.95496 9.80752 8.01751 9.91887 8.12886C10.0302 8.24021 10.0928 8.39123 10.0928 8.54871V13.2987H10.6865C10.844 13.2987 10.995 13.3613 11.1064 13.4726C11.2177 13.584 11.2803 13.735 11.2803 13.8925C11.2803 14.0499 11.2177 14.201 11.1064 14.3123C10.995 14.4237 10.844 14.4862 10.6865 14.4862Z" fill="#F890A1"/>
</svg>
