<svg width="15" height="14" viewBox="0 0 15 14" fill="none" xmlns="http://www.w3.org/2000/svg">
<g clip-path="url(#clip0_5368_10671)">
<path d="M7.40803 0.171387C3.62452 0.171387 0.546387 3.24952 0.546387 7.03303C0.546387 10.8165 3.62452 13.8947 7.40803 13.8947C11.1915 13.8947 14.2697 10.8165 14.2697 7.03303C14.2697 3.24952 11.1915 0.171387 7.40803 0.171387ZM7.40803 12.6471C4.31239 12.6471 1.79396 10.1286 1.79396 7.03303C1.79396 3.93743 4.31239 1.41896 7.40803 1.41896C10.5037 1.41896 13.0221 3.93743 13.0221 7.03303C13.0221 10.1286 10.5036 12.6471 7.40803 12.6471Z" fill="#DD2D4A"/>
<path d="M9.98087 4.60712L6.45215 8.1358L4.83488 6.51849C4.59132 6.27492 4.19634 6.27488 3.95273 6.51845C3.70912 6.76205 3.70912 7.15699 3.95273 7.4006L6.01105 9.45901C6.12803 9.57599 6.28668 9.64174 6.45211 9.64174H6.45215C6.61758 9.64174 6.77623 9.57599 6.89321 9.45906L10.863 5.48932C11.1066 5.24571 11.1066 4.85078 10.863 4.60717C10.6194 4.36356 10.2245 4.36352 9.98087 4.60712Z" fill="#DD2D4A"/>
</g>
<defs>
<clipPath id="clip0_5368_10671">
<rect width="13.7233" height="13.7233" fill="white" transform="translate(0.546387 0.171387)"/>
</clipPath>
</defs>
</svg>
