<svg width="41" height="41" viewBox="0 0 41 41" fill="none" xmlns="http://www.w3.org/2000/svg">
<path d="M40.4994 13.8538C40.5004 13.3703 40.3305 12.902 40.0198 12.5315C39.7091 12.161 39.2776 11.9121 38.8013 11.8288L38.7634 11.8229L36.4148 11.5144C36.2995 11.1973 36.1696 10.8845 36.0273 10.5788L37.4635 8.70041C37.4711 8.69121 37.4781 8.68093 37.4852 8.67119C37.7629 8.27542 37.892 7.79433 37.8497 7.31269C37.8074 6.83106 37.5965 6.37981 37.2541 6.03847L34.9488 3.73207C34.6074 3.39 34.1563 3.17938 33.6749 3.1373C33.1935 3.09523 32.7127 3.22441 32.3171 3.50208C32.3074 3.50857 32.2977 3.51615 32.2879 3.52318L30.408 4.95941C30.1022 4.81654 29.7894 4.68883 29.4723 4.5714L29.1655 2.22387C29.1655 2.21142 29.1617 2.19844 29.1595 2.18545C29.0761 1.70942 28.8273 1.27811 28.4571 0.967474C28.0868 0.656837 27.6189 0.486798 27.1356 0.487306H23.874C23.3911 0.487351 22.9237 0.657716 22.554 0.968425C22.1843 1.27913 21.936 1.71028 21.8528 2.18599C21.8528 2.19681 21.849 2.20764 21.8474 2.21846L21.5227 4.57086C21.2042 4.68667 20.8908 4.81636 20.5827 4.95995L18.7039 3.52318L18.6746 3.50208C18.2791 3.22437 17.7982 3.09522 17.3168 3.1374C16.8353 3.17957 16.3842 3.39036 16.043 3.73261L13.7355 6.03847C13.3933 6.3797 13.1825 6.8308 13.1403 7.31225C13.0981 7.79369 13.2273 8.27457 13.505 8.67011C13.512 8.67985 13.5191 8.69013 13.5266 8.69933L14.9629 10.5782C14.8194 10.8861 14.689 11.2011 14.5727 11.5204L12.2457 11.8218L12.2068 11.8277C11.7306 11.9111 11.2992 12.1598 10.9884 12.53C10.6777 12.9003 10.5076 13.3683 10.5081 13.8517V14.8993L8.71468 13.5286L8.68546 13.5075C8.2895 13.2293 7.80795 13.1 7.32589 13.1425C6.84383 13.1849 6.3923 13.3965 6.05112 13.7396L3.74525 16.0498C3.40297 16.3911 3.19216 16.8423 3.14998 17.3239C3.10781 17.8054 3.23698 18.2864 3.51472 18.682L3.53637 18.7112L4.97259 20.5901C4.82829 20.8964 4.69895 21.2085 4.58459 21.5263L2.23652 21.8337L2.19863 21.8396C1.72251 21.9229 1.29108 22.1716 0.980404 22.5419C0.66973 22.9121 0.499769 23.3802 0.500491 23.8636V27.1229C0.500131 27.6061 0.670246 28.0738 0.98088 28.4439C1.29151 28.8139 1.72274 29.0625 2.19863 29.1458L2.2311 29.1507L4.5835 29.4753C4.69877 29.793 4.82865 30.1063 4.97151 30.4126L3.53799 32.2737L3.51472 32.3056C3.23737 32.7011 3.10848 33.1818 3.15075 33.663C3.19302 34.1442 3.40374 34.595 3.7458 34.9361L6.05112 37.242C6.38545 37.578 6.82599 37.7876 7.29761 37.8351C7.76923 37.8825 8.24271 37.7649 8.63729 37.5023C8.66164 37.4861 8.686 37.4709 8.70927 37.4536L10.5887 36.0314C10.8961 36.1757 11.2092 36.3054 11.5281 36.4205L11.8355 38.7513C11.8355 38.7637 11.8388 38.7767 11.8409 38.7886C11.9243 39.2647 12.173 39.6962 12.5432 40.0069C12.9135 40.3177 13.3815 40.4878 13.8648 40.4873H17.1242C17.6076 40.488 18.0758 40.318 18.4461 40.0072C18.8164 39.6964 19.065 39.2648 19.1481 38.7886C19.1503 38.7781 19.152 38.7674 19.153 38.7567L19.4777 36.4216C19.797 36.3051 20.1112 36.175 20.4204 36.0314L22.2998 37.4536C22.3231 37.4714 22.3475 37.4861 22.3718 37.5023C22.7664 37.765 23.24 37.8825 23.7116 37.835C24.1832 37.7874 24.6238 37.5776 24.958 37.2415L27.2644 34.9361C27.6066 34.5948 27.8173 34.1436 27.8595 33.6621C27.9017 33.1806 27.7726 32.6996 27.4949 32.304C27.4873 32.2931 27.4798 32.2823 27.4716 32.272L26.1063 30.4987H27.1345C27.6181 30.4992 28.0863 30.329 28.4566 30.018C28.8268 29.707 29.0754 29.2753 29.1584 28.7989C29.1584 28.7865 29.1628 28.7735 29.1644 28.761L29.4718 26.4129C29.7889 26.2971 30.1009 26.1678 30.408 26.0249L32.2868 27.4612C32.3107 27.4796 32.3361 27.4953 32.361 27.5115C32.7557 27.7745 33.2295 27.8924 33.7014 27.845C34.1733 27.7977 34.6142 27.588 34.9488 27.2517L37.2563 24.9443C37.5985 24.603 37.8093 24.1519 37.8515 23.6705C37.8937 23.189 37.7645 22.7082 37.4868 22.3126C37.4798 22.3029 37.4727 22.2926 37.4652 22.2834L36.0289 20.4045C36.1732 20.0982 36.3026 19.7861 36.4169 19.4683L38.765 19.1604L38.8029 19.155C39.2785 19.0713 39.7093 18.8226 40.0196 18.4526C40.3299 18.0826 40.4998 17.615 40.4994 17.1321V13.8538ZM35.6555 17.821C35.4914 17.843 35.337 17.9114 35.2104 18.018C35.0837 18.1247 34.9902 18.2653 34.9407 18.4233C34.761 19.0026 34.5286 19.5641 34.2464 20.1009C34.1713 20.2451 34.138 20.4074 34.15 20.5696C34.1637 20.7365 34.2243 20.8961 34.3248 21.0301L36.0695 23.3121C36.1113 23.3744 36.1303 23.4492 36.1232 23.5239C36.1161 23.5986 36.0834 23.6685 36.0305 23.7218L33.722 26.0298C33.6688 26.0824 33.5991 26.1149 33.5246 26.122C33.4502 26.1291 33.3756 26.1103 33.3134 26.0688L31.0308 24.3225C30.8996 24.2221 30.7423 24.1614 30.5777 24.1475C30.4131 24.1336 30.2479 24.1671 30.1017 24.244C29.565 24.5265 29.0034 24.7589 28.4241 24.9383C28.2661 24.9876 28.1255 25.0811 28.0188 25.2076C27.9121 25.3342 27.8437 25.4886 27.8218 25.6526L27.4484 28.5045C27.4337 28.5778 27.3942 28.6437 27.3365 28.6912C27.2788 28.7388 27.2065 28.7649 27.1318 28.7653H23.8735C23.7985 28.765 23.7259 28.7386 23.668 28.6908C23.6102 28.6429 23.5708 28.5765 23.5564 28.5029C23.5564 28.5029 23.1651 25.6488 23.1651 25.6478C23.1423 25.4847 23.0737 25.3315 22.9673 25.2059C22.8609 25.0803 22.721 24.9875 22.5639 24.9383C21.9846 24.7588 21.4231 24.5263 20.8863 24.244C20.7402 24.1679 20.5754 24.1349 20.4112 24.1488C20.247 24.1627 20.0901 24.2229 19.9588 24.3225L19.0166 25.0422L19.0112 25.0465L17.6762 26.0671C17.6139 26.1088 17.5392 26.1276 17.4646 26.1204C17.39 26.1132 17.3203 26.0804 17.2671 26.0276L14.9591 23.7196C14.9064 23.6665 14.8738 23.5968 14.8666 23.5224C14.8594 23.4479 14.8781 23.3733 14.9196 23.311L16.6648 21.0285C16.7646 20.8969 16.8249 20.7397 16.8387 20.5752C16.8525 20.4107 16.8192 20.2456 16.7427 20.0993C16.4606 19.5625 16.2282 19.0009 16.0484 18.4217C15.9994 18.2637 15.9061 18.123 15.7796 18.0164C15.6531 17.9097 15.4987 17.8416 15.3346 17.82L12.5006 17.446C12.4272 17.4314 12.3612 17.392 12.3135 17.3343C12.2659 17.2766 12.2397 17.2042 12.2392 17.1294V13.8538C12.2396 13.7791 12.2658 13.7068 12.3133 13.6491C12.3608 13.5915 12.4268 13.5519 12.5001 13.5373L15.3254 13.1709C15.5059 13.1476 15.6744 13.0677 15.8065 12.9425C15.9186 12.8393 16.002 12.7088 16.0484 12.5637C16.2282 11.9845 16.4606 11.423 16.7427 10.8861C16.8191 10.7398 16.8524 10.5748 16.8386 10.4102C16.8248 10.2457 16.7645 10.0885 16.6648 9.95697L14.9196 7.67492C14.8779 7.61264 14.8591 7.53788 14.8663 7.46332C14.8735 7.38876 14.9063 7.31898 14.9591 7.26581L17.2671 4.95616C17.3203 4.90348 17.3901 4.87082 17.4647 4.86372C17.5393 4.85662 17.614 4.87551 17.6762 4.9172L19.9458 6.65214C20.0772 6.75263 20.2333 6.81582 20.3977 6.83505C20.5667 6.85085 20.7367 6.81779 20.8874 6.73981C21.4243 6.45768 21.9858 6.22528 22.565 6.04551C22.7223 5.99644 22.8623 5.90352 22.9686 5.77766C23.0749 5.6518 23.1431 5.49823 23.1651 5.33497L23.5564 2.4793C23.5708 2.40564 23.6102 2.33924 23.668 2.29139C23.7259 2.24354 23.7985 2.2172 23.8735 2.21684H27.1334C27.2082 2.21727 27.2806 2.24352 27.3383 2.29114C27.3959 2.33877 27.4354 2.40485 27.45 2.47821L27.8223 5.32902C27.8441 5.4932 27.9124 5.64773 28.0191 5.77439C28.1258 5.90105 28.2665 5.99455 28.4246 6.04388C29.0039 6.22342 29.5655 6.45583 30.1022 6.73818C30.2459 6.81318 30.4076 6.84672 30.5692 6.83505C30.7421 6.82112 30.9071 6.75677 31.0438 6.64998L33.314 4.91558C33.3763 4.87367 33.4513 4.85471 33.5261 4.86191C33.6009 4.86912 33.6709 4.90204 33.7241 4.95508L36.0311 7.26473C36.0838 7.31796 36.1164 7.38778 36.1235 7.46234C36.1306 7.5369 36.1117 7.61162 36.0701 7.67384L34.3248 9.95481C34.2248 10.0863 34.1642 10.2435 34.1501 10.4081C34.136 10.5727 34.169 10.7379 34.2453 10.8845C34.5279 11.4212 34.7605 11.9827 34.9401 12.5621C34.9893 12.7196 35.0825 12.8597 35.2086 12.9661C35.3348 13.0724 35.4887 13.1404 35.6523 13.1622L38.5047 13.5367C38.5781 13.5514 38.6441 13.591 38.6916 13.6488C38.7391 13.7066 38.7653 13.779 38.7655 13.8538V17.1321C38.7651 17.2069 38.739 17.2792 38.6914 17.3368C38.6439 17.3945 38.578 17.434 38.5047 17.4487L35.6555 17.821ZM26.0403 33.7099L23.7323 36.0184C23.6789 36.0712 23.609 36.1038 23.5343 36.1108C23.4596 36.1178 23.3848 36.0988 23.3226 36.0569L21.0379 34.3252C20.9065 34.2262 20.7498 34.1666 20.5859 34.1532C20.422 34.1398 20.2576 34.1731 20.1119 34.2494C19.5751 34.5315 19.0135 34.7639 18.4344 34.9437C18.2783 34.9944 18.1395 35.0875 18.0333 35.2126C17.9271 35.3377 17.8578 35.4899 17.8331 35.6521L17.4413 38.4904C17.427 38.5641 17.3875 38.6305 17.3297 38.6783C17.2719 38.7262 17.1993 38.7525 17.1242 38.7529H13.8665C13.7917 38.7525 13.7195 38.7263 13.6618 38.6788C13.6041 38.6313 13.5646 38.5653 13.5499 38.4921C13.5499 38.4921 13.1765 35.6602 13.176 35.6575C13.154 35.4936 13.0856 35.3394 12.9791 35.2129C12.8725 35.0865 12.732 34.9931 12.5742 34.9437C11.995 34.7639 11.4335 34.5315 10.8966 34.2494C10.7511 34.1729 10.5868 34.1394 10.4229 34.1528C10.259 34.1662 10.1024 34.226 9.97124 34.3252L7.68648 36.0569C7.62422 36.0989 7.54931 36.118 7.47451 36.111C7.39971 36.104 7.32966 36.0713 7.27629 36.0184L4.96881 33.7093C4.91631 33.6562 4.88372 33.5867 4.87652 33.5123C4.86932 33.438 4.88796 33.3635 4.9293 33.3013L6.6729 31.0398C6.77455 30.9085 6.83629 30.7508 6.85078 30.5853C6.86527 30.4199 6.83189 30.2538 6.75462 30.1069C6.47249 29.57 6.24009 29.0085 6.06031 28.4293C6.01068 28.272 5.91731 28.132 5.79112 28.0257C5.66492 27.9195 5.5111 27.8513 5.34761 27.8291L2.49194 27.4379C2.41828 27.4235 2.35188 27.3841 2.30403 27.3262C2.25619 27.2684 2.22984 27.1958 2.22948 27.1208V23.8614C2.22979 23.7865 2.25598 23.714 2.30362 23.6562C2.35125 23.5984 2.4174 23.5589 2.49086 23.5443L5.3422 23.1709C5.50356 23.1482 5.65538 23.0809 5.78054 22.9766C5.90926 22.8697 6.00497 22.7283 6.05653 22.5691C6.23637 21.9899 6.46877 21.4284 6.75083 20.8915C6.82745 20.7453 6.86082 20.5802 6.84702 20.4156C6.83322 20.2511 6.77282 20.0939 6.6729 19.9624L4.92768 17.6798C4.8862 17.6176 4.86748 17.5429 4.87468 17.4685C4.88187 17.394 4.91455 17.3244 4.96718 17.2712L7.27521 14.9632C7.32838 14.9104 7.39816 14.8777 7.47272 14.8705C7.54728 14.8633 7.62204 14.8821 7.68432 14.9237L9.95392 16.6586C10.1121 16.7801 10.3059 16.8461 10.5054 16.8464V17.1321C10.5046 17.6155 10.6746 18.0836 10.9853 18.4538C11.2959 18.8241 11.7274 19.0728 12.2035 19.1561L12.2408 19.162L14.5721 19.4694C14.6872 19.7865 14.8164 20.0986 14.9596 20.4056L14.7615 20.6653C13.5534 20.8525 12.459 21.4853 11.6941 22.439C10.9292 23.3928 10.5491 24.5984 10.6287 25.8184C10.7084 27.0384 11.2419 28.1843 12.1244 29.0306C13.0068 29.8768 14.1741 30.3619 15.3963 30.3904H15.5045C16.6771 30.3859 17.8093 29.9618 18.6962 29.1948C19.5831 28.4277 20.1662 27.3686 20.3398 26.2089L20.5817 26.0239C20.889 26.1682 21.2022 26.2979 21.5211 26.4129L21.8458 28.7648C21.8458 28.7756 21.849 28.787 21.8512 28.7978C21.9338 29.2742 22.1821 29.706 22.5521 30.0172C22.922 30.3284 23.3901 30.4989 23.8735 30.4987H24.1576C24.1553 30.694 24.2183 30.8845 24.3367 31.0398L26.0803 33.3029C26.1213 33.3651 26.1397 33.4394 26.1324 33.5135C26.1251 33.5876 26.0926 33.6569 26.0403 33.7099ZM16.0425 27.2517C16.2331 27.4429 16.4597 27.5946 16.7091 27.6981C16.9586 27.8015 17.226 27.8547 17.496 27.8546C17.5339 27.8546 17.5723 27.8546 17.6107 27.8503C17.01 28.3865 16.2272 28.6732 15.4222 28.6518C14.6172 28.6304 13.8508 28.3025 13.2794 27.7351C12.708 27.1677 12.3747 26.4036 12.3476 25.5988C12.3206 24.794 12.6017 24.0092 13.1337 23.4047C13.1219 23.689 13.1693 23.9727 13.2728 24.2377C13.3764 24.5027 13.534 24.7433 13.7355 24.9443L16.0425 27.2517Z" fill="#DD2D4A"/>
<path d="M25.4947 9.31445C24.2729 9.31445 23.0784 9.67678 22.0625 10.3556C21.0466 11.0344 20.2547 11.9993 19.7872 13.1281C19.3196 14.257 19.1972 15.4991 19.4356 16.6975C19.674 17.8959 20.2624 18.9967 21.1263 19.8607C21.9903 20.7246 23.0911 21.313 24.2895 21.5514C25.4879 21.7898 26.73 21.6674 27.8589 21.1998C28.9877 20.7323 29.9526 19.9404 30.6314 18.9245C31.3102 17.9086 31.6725 16.7141 31.6725 15.4923C31.6707 13.8544 31.0192 12.2841 29.861 11.126C28.7029 9.96779 27.1326 9.31632 25.4947 9.31445ZM25.4947 19.9384C24.6154 19.9384 23.7557 19.6776 23.0246 19.1891C22.2934 18.7005 21.7235 18.0062 21.387 17.1937C21.0505 16.3813 20.9625 15.4873 21.134 14.6249C21.3056 13.7624 21.729 12.9702 22.3508 12.3484C22.9726 11.7266 23.7649 11.3031 24.6273 11.1316C25.4898 10.96 26.3838 11.0481 27.1962 11.3846C28.0086 11.7211 28.703 12.291 29.1915 13.0221C29.6801 13.7533 29.9408 14.6129 29.9408 15.4923C29.9396 16.6711 29.4707 17.8012 28.6372 18.6347C27.8036 19.4683 26.6735 19.9371 25.4947 19.9384Z" fill="#DD2D4A"/>
</svg>
