<svg width="999" height="177" viewBox="0 0 999 177" fill="none" xmlns="http://www.w3.org/2000/svg">
<path d="M0.497917 170.309C0.497917 167.311 0.959248 166.619 1.88191 166.619H14.3379C21.2578 166.619 21.9498 165.927 21.9498 159.007V22.914C21.9498 15.994 21.2578 
15.302 14.3379 15.302H2.57391C1.65125 15.302 1.18991 14.61 1.18991 11.6114C1.18991 8.61274 1.65125 7.92074 2.57391 7.92074H68.3136C69.2363 7.92074 69.6976 8.61274 69.6976
11.6114C69.6976 14.61 69.2363 15.302 68.3136 15.302H56.5497C49.6297 15.302 48.9377 15.994 48.9377 22.914V78.0431H120.905V22.914C120.905 15.994 120.213 15.302 113.293 
15.302H101.529C100.607 15.302 100.145 14.61 100.145 11.6114C100.145 8.61274 100.607 7.92074 101.529 7.92074H167.961C168.884 7.92074 169.345 8.61274 169.345 11.6114C169.345 14.61 168.884 15.302 167.961 15.302H156.197C149.277 15.302 148.585 15.994 148.585 22.914V159.007C148.585 165.927 149.277 166.619 156.197 166.619H168.653C169.576 166.619 170.037 167.311 170.037 170.309C170.037 173.308 169.576 174 168.653 174H100.837C99.9148 174 99.4535 173.308 99.4535 170.309C99.4535 167.311 99.9148 166.619 100.837 166.619H113.293C120.213 166.619 120.905 165.927 120.905 159.007V85.4244H48.9377V159.007C48.9377 165.927 49.6297 166.619 56.5497 166.619H69.0056C69.9283 166.619 70.3896 167.311 70.3896 170.309C70.3896 173.308 69.9283 174 69.0056 174H1.88191C0.959248 174 0.497917 173.308 0.497917 170.309ZM288.163 122.331C288.163 153.471 265.789 176.768 236.955 176.768C208.122 176.768 185.748 153.471 185.748 122.331C185.748 90.9604 208.584 67.8938 236.955 67.8938C265.327 67.8938 288.163 90.9604 288.163 122.331ZM210.89 122.331C210.89 147.473 212.736 156.239 219.194 162.697C223.577 167.08 229.113 168.925 236.955 168.925C244.798 168.925 250.334 167.08 254.717 162.697C261.175 156.239 263.021 147.473 263.021 122.331C263.021 97.1883 261.175 88.423 254.717 81.9644C250.334 77.5818 245.49 75.7364 236.955 75.7364C228.421 75.7364 223.577 77.5818 219.194 81.9644C212.736 88.423 210.89 97.1883 210.89 122.331ZM301.472 170.309C301.472 167.311 301.933 166.619 302.856 166.619H312.543C319.463 166.619 320.155 165.927 320.155 159.007V15.302C320.155 8.38206 319.463 7.69007 312.543 7.69007H305.624C304.47 7.69007 304.009 6.99807 304.009 3.99942C304.009 1.00076 304.47 0.308773 305.393 0.308773H336.071C340.685 0.308773 342.53 1.92343 342.53 6.99807V159.007C342.53 165.927 343.222 166.619 350.142 166.619H357.062C357.985 166.619 358.446 167.311 358.446 170.309C358.446 173.308 357.985 174 357.062 174H302.856C301.933 174 301.472 173.308 301.472 170.309ZM373.104 170.309C373.104 167.311 373.565 166.619 374.488 166.619H384.176C391.096 166.619 391.788 165.927 391.788 159.007V15.302C391.788 8.38206 391.096 7.69007 384.176 7.69007H377.256C376.103 7.69007 375.641 6.99807 375.641 3.99942C375.641 1.00076 376.103 0.308773 377.025 0.308773H407.704C412.317 0.308773 414.162 1.92343 414.162 6.99807V159.007C414.162 165.927 414.854 166.619 421.774 166.619H428.694C429.617 166.619 430.078 167.311 430.078 170.309C430.078 173.308 429.617 174 428.694 174H374.488C373.565 174 373.104 173.308 373.104 170.309ZM446.582 149.549C446.582 121.639 475.646 118.41 508.17 115.411V95.5737C508.17 82.8871 502.634 75.7364 487.179 75.7364C483.027 75.7364 478.414 76.6591 475.646 78.5044C479.567 97.1883 471.955 102.032 465.266 102.032C459.73 102.032 455.116 98.111 455.116 91.883C455.116 80.5804 468.264 67.8938 491.1 67.8938C517.858 67.8938 530.544 78.2738 530.544 102.494V159.237C530.544 165.465 533.312 168.464 537.464 168.464C540.693 168.464 543.461 167.541 546.691 166.619C548.305 166.157 551.073 172.385 549.459 173.077C544.153 175.615 540.232 176.768 532.851 176.768C522.01 176.768 514.167 170.079 510.015 161.083H509.092C502.634 171.693 495.483 176.768 480.951 176.768C456.962 176.768 446.582 165.235 446.582 149.549ZM470.571 147.935C470.571 162.697 475.415 168.695 486.026 168.695C491.331 168.695 495.022 167.772 498.02 164.773C500.558 162.236 506.786 150.703 508.631 144.244V122.792C490.178 123.254 480.49 126.252 475.876 130.866C471.724 135.018 470.571 139.169 470.571 147.935ZM557.103 170.309C557.103 167.311 557.564 166.619 558.487 166.619H567.022C573.942 166.619 574.634 165.927 574.634 159.007V85.6551C574.634 78.7351 573.942 78.0431 567.022 78.0431H561.255C560.332 78.0431 559.871 77.3511 559.871 74.3524C559.871 71.5845 560.332 70.6618 561.255 70.6618H585.475C590.088 70.6618 591.472 73.1991 592.626 78.0431L596.086 92.8057H597.008C603.006 77.8124 615 67.8938 631.608 67.8938C653.291 67.8938 665.977 78.2738 665.977 102.494V159.007C665.977 165.927 666.669 166.619 673.589 166.619H679.356C680.279 166.619 680.74 167.311 680.74 170.309C680.74 173.308 680.279 174 679.356 174H629.071C628.148 174 627.687 173.308 627.687 170.309C627.687 167.311 628.148 166.619 629.071 166.619H635.991C642.911 166.619 643.603 165.927 643.603 159.007V96.2657C643.603 82.8871 638.297 77.1204 626.072 77.1204C619.844 77.1204 612.694 79.8884 609.003 83.8097C606.004 86.8084 599.546 106.184 597.008 119.563V159.007C597.008 165.927 597.7 166.619 604.62 166.619H611.54C612.463 166.619 612.924 167.311 612.924 170.309C612.924 173.308 612.463 174 611.54 174H558.487C557.564 174 557.103 173.308 557.103 170.309ZM696.411 122.331C696.411 91.4217 714.864 67.8938 743.236 67.8938C755.692 67.8938 765.38 72.0458 771.377 78.7351L772.069 78.5044C771.838 75.0444 771.608 69.2778 771.608 63.0498V15.302C771.608 8.38206 770.916 7.69007 763.996 7.69007H755.692C754.769 7.69007 754.538 6.76741 754.538 3.99942C754.538 1.23144 754.769 0.308773 755.692 0.308773H787.524C792.137 0.308773 793.982 1.92343 793.982 6.99807V159.007C793.982 165.927 794.674 166.619 801.594 166.619H810.129C811.052 166.619 811.282 167.541 811.282 170.309C811.282 173.077 811.052 174 810.129 174H783.372C778.758 174 777.144 171.463 775.99 166.619L773.684 156.931H772.761C766.994 169.848 757.076 176.768 743.236 176.768C713.711 176.768 696.411 153.701 696.411 122.331ZM721.323 122.331C721.323 147.704 725.013 156.931 731.011 162.928C735.163 167.08 739.776 168.925 746.465 168.925C752.001 168.925 757.076 167.08 761.228 162.928C763.996 160.16 770.454 144.475 772.53 133.172V92.575C767.456 81.0417 758.229 75.7364 746.465 75.7364C739.776 75.7364 735.163 77.5818 731.011 81.7337C725.013 87.731 721.323 96.9577 721.323 122.331ZM823.134 170.309C823.134 167.311 823.596 166.619 824.518 166.619H833.053C839.973 166.619 840.665 165.927 840.665 159.007V85.6551C840.665 78.7351 839.973 78.0431 833.053 78.0431H826.825C825.902 78.0431 825.441 77.1204 825.441 74.1218C825.441 71.1231 825.902 70.6618 826.825 70.6618H855.658C861.194 70.6618 863.04 72.2765 863.04 77.3511V159.007C863.04 165.927 863.732 166.619 870.652 166.619H877.572C878.494 166.619 878.956 167.311 878.956 170.309C878.956 173.308 878.494 174 877.572 174H824.518C823.596 174 823.134 173.308 823.134 170.309ZM834.206 19.2234C834.206 11.6114 840.434 4.69142 848.738 4.69142C857.042 4.69142 863.501 11.6114 863.501 19.2234C863.501 26.8353 857.042 33.5246 848.738 33.5246C840.434 33.5246 834.206 26.8353 834.206 19.2234ZM893.722 149.549C893.722 121.639 922.786 118.41 955.309 115.411V95.5737C955.309 82.8871 949.773 75.7364 934.319 75.7364C930.167 75.7364 925.554 76.6591 922.786 78.5044C926.707 97.1883 919.095 102.032 912.406 102.032C906.87 102.032 902.256 98.111 902.256 91.883C902.256 80.5804 915.404 67.8938 938.24 67.8938C964.997 67.8938 977.684 78.2738 977.684 102.494V159.237C977.684 165.465 980.452 168.464 984.604 168.464C987.833 168.464 990.601 167.541 993.831 166.619C995.445 166.157 998.213 172.385 996.599 173.077C991.293 175.615 987.372 176.768 979.991 176.768C969.149 176.768 961.307 170.079 957.155 161.083H956.232C949.773 171.693 942.623 176.768 928.091 176.768C904.102 176.768 893.722 165.235 893.722 149.549ZM917.711 147.935C917.711 162.697 922.555 168.695 933.166 168.695C938.471 168.695 942.162 167.772 945.16 164.773C947.697 162.236 953.925 150.703 955.771 144.244V122.792C937.318 123.254 927.63 126.252 923.016 130.866C918.864 135.018 917.711 139.169 917.711 147.935Z" fill="#EDE7E3"/>
</svg>
