<svg xmlns="http://www.w3.org/2000/svg" viewBox="0 0 25 25" fill="none"><path d="M6.715 19.705h3.346v-5.038c0-.256.087-.471.26-.644s.388-.26.644-.26h3.5c.256 0 .471.087.644.26s.26.388.26.644v5.038h3.346v-8.846a.29.29 0 0 0-.034-.139c-.023-.042-.053-.079-.091-.111L12.898 6.33c-.051-.045-.112-.067-.183-.067s-.131.022-.183.067L6.84 10.609c-.038.032-.069.069-.091.111a.29.29 0 0 0-.034.139v8.846zm-1.5 0v-8.846c0-.286.064-.557.192-.813s.305-.467.531-.633l5.692-4.288c.316-.241.677-.362 1.083-.362a1.75 1.75 0 0 1 1.086.362l5.692 4.288c.226.166.403.377.531.633s.192.527.192.813v8.846a1.44 1.44 0 0 1-.443 1.057 1.44 1.44 0 0 1-1.057.443h-3.942c-.256 0-.471-.087-.644-.26s-.26-.388-.26-.644v-5.039h-2.308v5.039c0 .256-.087.471-.26.644s-.388.26-.644.26H6.715a1.44 1.44 0 0 1-1.057-.443 1.44 1.44 0 0 1-.443-1.057z" fill="url(#A)"/><defs><linearGradient id="A" x1="6.112" y1="12.984" x2="19.473" y2="12.676" gradientUnits="userSpaceOnUse"><stop stop-color="#194185"/><stop offset="1" stop-color="#1570ef"/></linearGradient></defs></svg>
