<svg xmlns="http://www.w3.org/2000/svg" width="33" height="33" fill="none"><rect width="32" height="32" x=".42" y=".5" fill="#D1E9FF" rx="16"/><path stroke="#1570EF" stroke-linecap="round" stroke-linejoin="round" d="M22.253 19.37v1.75a1.169 1.169 0 0 1-1.272 1.167 11.545 11.545 0 0 1-5.034-1.791 11.374 11.374 0 0 1-3.5-3.5 11.544 11.544 0 0 1-1.79-5.058 1.166 1.166 0 0 1 1.16-1.271h1.75a1.166 1.166 0 0 1 1.167 1.003c.073.56.21 1.11.408 1.64a1.167 1.167 0 0 1-.263 1.23l-.74.74a9.333 9.333 0 0 0 3.5 3.5l.74-.74a1.167 1.167 0 0 1 1.231-.262c.53.197 1.08.334 1.64.408a1.167 1.167 0 0 1 1.003 1.184Z"/></svg>