<svg xmlns="http://www.w3.org/2000/svg" viewBox="0 0 25 25" fill="none"><path d="M12.41 21.205c-2.369 0-4.378-.824-6.027-2.473S3.91 15.074 3.91 12.705c0-1.973.611-3.727 1.832-5.262s2.848-2.524 4.88-2.967c.21-.053.395-.047.556.015a.92.92 0 0 1 .39.281.84.84 0 0 1 .177.453c.018.178-.024.355-.125.532-.206.376-.36.766-.46 1.171a5.31 5.31 0 0 0-.15 1.277c0 1.639.574 3.032 1.721 4.179s2.54 1.721 4.179 1.721c.491 0 .96-.062 1.408-.187a6.89 6.89 0 0 0 1.175-.433c.164-.072.324-.097.481-.076a.84.84 0 0 1 .4.157c.123.083.214.197.274.341s.066.314.02.509c-.355 1.967-1.312 3.59-2.87 4.869s-3.354 1.919-5.387 1.919zm0-1.5c1.467 0 2.783-.404 3.95-1.213a7.01 7.01 0 0 0 2.55-3.162l-1 .2a6.73 6.73 0 0 1-1 .075 7.13 7.13 0 0 1-5.238-2.162A7.13 7.13 0 0 1 9.51 8.205a6.73 6.73 0 0 1 .075-1l.2-1a7.01 7.01 0 0 0-3.163 2.55c-.808 1.167-1.213 2.483-1.213 3.95a6.74 6.74 0 0 0 2.05 4.95 6.74 6.74 0 0 0 4.95 2.05z" fill="url(#A)"/><defs><linearGradient id="A" x1="4.915" y1="12.823" x2="19.866" y2="12.445" gradientUnits="userSpaceOnUse"><stop stop-color="#194185"/><stop offset="1" stop-color="#1570ef"/></linearGradient></defs></svg>
