<svg width="33" height="32" fill="none" xmlns="http://www.w3.org/2000/svg"><rect x=".84" width="32" height="32" rx="16" fill="#D1E9FF"/><path d="m15.633 19.582 5.662-5.661-.888-.888-4.774 4.774-2.4-2.4-.888.888 3.288 3.287ZM16.83 24a7.794 7.794 0 0 1-3.12-.63 8.079 8.079 0 0 1-2.541-1.71 8.078 8.078 0 0 1-1.71-2.54 7.786 7.786 0 0 1-.63-3.119c0-1.106.21-2.146.629-3.12a8.08 8.08 0 0 1 1.71-2.54 8.078 8.078 0 0 1 2.54-1.71A7.785 7.785 0 0 1 16.826 8c1.106 0 2.146.21 3.12.63.973.42 1.82.99 2.54 1.71s1.29 1.566 1.711 2.54c.42.972.63 2.012.63 3.119 0 1.106-.21 2.146-.63 3.12a8.08 8.08 0 0 1-1.71 2.54 8.076 8.076 0 0 1-2.539 1.71c-.973.42-2.013.631-3.12.631Z" fill="#1570EF"/></svg>