<svg xmlns="http://www.w3.org/2000/svg" viewBox="0 0 25 25" fill="none"><path d="M10.998 13.771l-1.623-1.608c-.138-.138-.31-.209-.514-.213s-.384.073-.539.228c-.145.145-.217.321-.217.527s.072.382.217.527l2.044 2.044c.181.181.392.271.633.271s.452-.09.633-.271l4.144-4.144c.149-.149.222-.323.22-.522s-.075-.377-.22-.532c-.155-.155-.333-.235-.535-.24s-.379.07-.535.225l-3.708 3.708zm-2.54 8.117l-1.383-2.325-2.615-.562c-.224-.044-.404-.162-.538-.354s-.187-.401-.161-.625l.256-2.69-1.779-2.035c-.154-.164-.231-.362-.231-.592s.077-.428.231-.592l1.779-2.035-.256-2.69c-.027-.224.027-.433.161-.625s.313-.31.538-.354l2.615-.562 1.383-2.325c.121-.197.285-.332.492-.404s.419-.061.633.033l2.465 1.042 2.465-1.042c.214-.094.425-.104.633-.033s.372.206.492.404l1.383 2.325 2.615.562c.224.044.403.162.537.354s.188.401.16.625l-.256 2.69 1.779 2.035c.154.164.231.361.231.592s-.077.428-.231.592l-1.779 2.035.256 2.69c.027.224-.027.433-.16.625s-.313.31-.537.354l-2.615.562-1.383 2.325c-.12.197-.285.332-.492.404s-.419.061-.633-.033l-2.465-1.042-2.465 1.042c-.214.094-.425.105-.633.033s-.372-.206-.492-.404zm1.04-1.233l2.55-1.081 2.581 1.081 1.419-2.4 2.75-.631-.25-2.819 1.85-2.1-1.85-2.131.25-2.819-2.75-.6-1.45-2.4-2.55 1.081-2.581-1.081-1.419 2.4-2.75.6.25 2.819-1.85 2.131 1.85 2.1-.25 2.85 2.75.6 1.45 2.4z" fill="url(#A)"/><defs><linearGradient id="A" x1="3.209" y1="12.706" x2="21.092" y2="12.235" gradientUnits="userSpaceOnUse"><stop stop-color="#194185"/><stop offset="1" stop-color="#1570ef"/></linearGradient></defs></svg>
