<svg xmlns="http://www.w3.org/2000/svg" width="33" height="33" fill="none"><rect width="32" height="32" x=".42" y=".5" fill="#15CCFF" rx="16"/><path stroke="#1570EF" stroke-linecap="round" stroke-linejoin="round" d="M22.253 19.37v1.75a1.169 1.169 0 0 1-1.272 1.167 11.545 11.545 0 0 1-5.034-1.791 11.374 11.374 0 0 1-3.5-3.5 11.544 11.544 0 0 1-1.79-5.058 1.166 1.166 0 0 1 1.16-1.271h1.75a1.166 1.166 0 0 1 1.167 1.003c.073.56.21 1.11.408 1.64a1.167 1.167 0 0 1-.263 1.23l-.74.74a9.333 9.333 0 0 0 3.5 3.5l.74-.74a1.167 1.167 0 0 1 1.231-.262c.53.197 1.08.334 1.64.408a1.167 1.167 0 0 1 1.003 1.184Z"/><path fill="#265D8D" d="M17.395 23.34a2.198 2.198 0 1 1 4.396 0 2.198 2.198 0 0 1-4.396 0Z"/><path fill="#265D8D" d="M26.456 13.71a8.007 8.007 0 0 0-1.427-3.372 9.246 9.246 0 0 0-3.322-2.8A9.704 9.704 0 0 0 17.358 6.5a9.26 9.26 0 0 0-1.265.086 10.091 10.091 0 0 0-4.842 2.048c-1.548 1.222-2.546 2.793-2.888 4.544-.102.52-.146 1.096-.188 1.653-.065.872-.133 1.772-.41 2.361-.19.403-.472.672-1.236.672a1.108 1.108 0 0 0-.886 1.774c2.585 3.431 6.94 3.828 9.992 3.828.075 0 .151 0 .225-.002h.423c.099.002.199.002.303.002 1.422 0 2.926-.07 4.298-.583a9.266 9.266 0 0 0 3.148-1.995c.99-.95 1.717-2.071 2.101-3.242.434-1.318.542-2.641.323-3.936ZM25.08 17.3c-.692 2.107-2.623 3.813-4.583 4.544-1.278.477-2.772.513-3.91.513l-.563-.002-.17.002h-.22c-2.863 0-6.817-.35-9.105-3.386 3.135 0 2.516-3.502 2.923-5.58.617-3.167 3.749-5.296 6.789-5.707.373-.05.748-.075 1.117-.075 4.996 0 9.442 4.46 7.722 9.69Z"/><path fill="#fff" d="M25.078 17.3c-.692 2.107-2.623 3.813-4.584 4.544-1.278.477-2.771.513-3.91.513l-.562-.002-.17.002h-.22c-2.863 0-6.817-.35-9.106-3.386 3.136 0 2.517-3.502 2.923-5.58.617-3.167 3.75-5.296 6.79-5.707.373-.05.748-.075 1.117-.075 4.996 0 9.442 4.46 7.722 9.69Z"/><path fill="#265D8D" d="M15.934 13.132a1.065 1.065 0 1 1-2.13 0 1.065 1.065 0 0 1 2.13 0ZM20.906 13.132a1.065 1.065 0 1 1-2.13 0 1.065 1.065 0 0 1 2.13 0ZM17.316 18.84c-1.804 0-3.429-1.182-3.727-2.73a.554.554 0 0 1 1.089-.21c.175.91 1.265 1.869 2.718 1.831 1.513-.04 2.512-.944 2.718-1.818a.555.555 0 0 1 1.08.254c-.169.713-.628 1.373-1.294 1.86-.694.507-1.55.788-2.475.813h-.109ZM9.764 23.34a2.198 2.198 0 1 1 4.396 0 2.198 2.198 0 0 1-4.396 0Z"/></svg>