<svg width="30" height="31" viewBox="0 0 30 31" fill="none" xmlns="http://www.w3.org/2000/svg">
<g clip-path="url(#clip0_5368_10534)">
<path d="M26.9976 12.7974C26.2894 12.7987 25.6046 13.0502 25.0639 13.5076C24.5233 13.965 24.1618 14.5987 24.0432 15.2969H17.9549C17.8809 14.8511 17.7058 14.4282 17.443 14.0606L21.7516 9.75198C22.3608 10.1783 23.1078 10.3605 23.8448 10.2623C24.5819 10.1642 25.2552 9.79295 25.7316 9.22205C26.2079 8.65116 26.4526 7.92223 26.4172 7.17954C26.3818 6.43684 26.0688 5.73451 25.5403 5.21154C25.0118 4.68857 24.3062 4.38308 23.5631 4.35554C22.8201 4.32799 22.0938 4.58039 21.528 5.06278C20.9622 5.54518 20.5981 6.22241 20.5078 6.96044C20.4174 7.69847 20.6075 8.44352 21.0403 9.04812L16.7361 13.3527C16.3685 13.0903 15.9456 12.9155 15.4999 12.8419V6.75359C16.2414 6.62824 16.9088 6.22889 17.3698 5.63468C17.8308 5.04046 18.0518 4.29475 17.9889 3.54532C17.926 2.79588 17.5839 2.09742 17.0303 1.58835C16.4767 1.07928 15.7521 0.796753 15 0.796753C14.2479 0.796753 13.5233 1.07928 12.9697 1.58835C12.4161 2.09742 12.074 2.79588 12.0111 3.54532C11.9482 4.29475 12.1692 5.04046 12.6302 5.63468C13.0912 6.22889 13.7586 6.62824 14.5001 6.75359V12.8419C14.0543 12.9158 13.6314 13.0909 13.2639 13.3537L8.95972 9.04812C9.40913 8.42766 9.60878 7.66089 9.51904 6.90005C9.42931 6.13921 9.05674 5.43993 8.47531 4.94105C7.89388 4.44218 7.14611 4.18018 6.38047 4.20709C5.61483 4.234 4.8873 4.54784 4.34232 5.0863C3.79735 5.62476 3.47479 6.34847 3.43869 7.11373C3.40258 7.879 3.65557 8.62986 4.14742 9.21724C4.63927 9.80462 5.33402 10.1856 6.09373 10.2844C6.85344 10.3833 7.62255 10.1929 8.24837 9.75098L12.557 14.0596C12.294 14.4275 12.1189 14.8507 12.0451 15.2969H5.95683C5.83149 14.5553 5.43214 13.8879 4.83792 13.4269C4.24371 12.9659 3.498 12.745 2.74856 12.8079C1.99913 12.8708 1.30067 13.2129 0.791601 13.7665C0.28253 14.3201 0 15.0447 0 15.7968C0 16.5488 0.28253 17.2734 0.791601 17.827C1.30067 18.3806 1.99913 18.7227 2.74856 18.7856C3.498 18.8485 4.24371 18.6276 4.83792 18.1666C5.43214 17.7056 5.83149 17.0382 5.95683 16.2967H12.0451C12.1191 16.7424 12.2942 17.1653 12.557 17.5329L8.24837 21.8415C7.63921 21.4152 6.8922 21.233 6.15516 21.3312C5.41813 21.4293 4.74479 21.8006 4.26842 22.3715C3.79205 22.9423 3.54736 23.6713 3.58278 24.414C3.6182 25.1567 3.93115 25.859 4.45969 26.382C4.98823 26.9049 5.69384 27.2104 6.43687 27.238C7.17989 27.2655 7.90619 27.0131 8.472 26.5307C9.03782 26.0483 9.40192 25.3711 9.49223 24.6331C9.58255 23.895 9.39251 23.15 8.95972 22.5454L13.2639 18.2408C13.6315 18.5032 14.0544 18.678 14.5001 18.7517V24.8399C13.7586 24.9653 13.0912 25.3646 12.6302 25.9588C12.1692 26.553 11.9482 27.2988 12.0111 28.0482C12.074 28.7976 12.4161 29.4961 12.9697 30.0052C13.5233 30.5142 14.2479 30.7968 15 30.7968C15.7521 30.7968 16.4767 30.5142 17.0303 30.0052C17.5839 29.4961 17.926 28.7976 17.9889 28.0482C18.0518 27.2988 17.8308 26.553 17.3698 25.9588C16.9088 25.3646 16.2414 24.9653 15.4999 24.8399V18.7517C15.9457 18.6777 16.3686 18.5026 16.7361 18.2398L21.0403 22.5444C20.5975 23.1582 20.4015 23.916 20.4913 24.6674C20.581 25.4189 20.9499 26.1093 21.5247 26.6016C22.0996 27.0938 22.8385 27.3521 23.5948 27.3252C24.3512 27.2982 25.0698 26.988 25.6081 26.4561C26.1465 25.9241 26.4653 25.2093 26.5014 24.4533C26.5374 23.6974 26.288 22.9555 25.8027 22.3747C25.3173 21.794 24.6315 21.4169 23.8811 21.3181C23.1308 21.2193 22.3707 21.4062 21.7516 21.8415L17.443 17.5329C17.7058 17.1653 17.8809 16.7424 17.9549 16.2967H24.0432C24.1385 16.8606 24.3931 17.3856 24.777 17.8096C25.1608 18.2337 25.6579 18.5391 26.2097 18.69C26.7614 18.8408 27.3448 18.8307 27.891 18.6609C28.4372 18.4912 28.9234 18.1687 29.2924 17.7317C29.6614 17.2946 29.8977 16.7612 29.9735 16.1943C30.0493 15.6273 29.9615 15.0505 29.7203 14.5319C29.4791 14.0133 29.0946 13.5744 28.6122 13.2671C28.1298 12.9598 27.5695 12.7968 26.9976 12.7974ZM3.00243 17.7963C2.60695 17.7963 2.22035 17.6791 1.89152 17.4594C1.56268 17.2396 1.30639 16.9273 1.15505 16.562C1.0037 16.1966 0.964103 15.7945 1.04126 15.4067C1.11841 15.0188 1.30886 14.6625 1.5885 14.3828C1.86815 14.1032 2.22445 13.9127 2.61233 13.8356C3.00021 13.7584 3.40227 13.798 3.76764 13.9494C4.13302 14.1007 4.44531 14.357 4.66503 14.6858C4.88475 15.0147 5.00203 15.4013 5.00203 15.7968C5.00203 16.3271 4.79136 16.8357 4.41636 17.2107C4.04136 17.5857 3.53276 17.7963 3.00243 17.7963ZM22.0696 5.89876C22.4445 5.52389 22.9531 5.3133 23.4833 5.3133C24.0135 5.3133 24.522 5.52389 24.897 5.89876C25.1766 6.17841 25.3671 6.53471 25.4442 6.92259C25.5214 7.31047 25.4818 7.71251 25.3304 8.07788C25.1791 8.44326 24.9228 8.75554 24.5939 8.97526C24.2651 9.19497 23.8785 9.31224 23.483 9.31224C23.0876 9.31224 22.701 9.19497 22.3721 8.97526C22.0433 8.75554 21.787 8.44326 21.6357 8.07788C21.4843 7.71251 21.4447 7.31047 21.5219 6.92259C21.599 6.53471 21.7899 6.17841 22.0696 5.89876ZM13.0004 3.79918C13.0004 3.4037 13.1177 3.0171 13.3374 2.68827C13.5571 2.35944 13.8694 2.10314 14.2348 1.9518C14.6002 1.80046 15.0022 1.76086 15.3901 1.83801C15.778 1.91517 16.1343 2.10561 16.4139 2.38526C16.6936 2.66491 16.884 3.0212 16.9612 3.40908C17.0383 3.79697 16.9987 4.19902 16.8474 4.5644C16.696 4.92977 16.4397 5.24207 16.1109 5.46179C15.7821 5.6815 15.3955 5.79878 15 5.79878C14.4697 5.79878 13.9611 5.58811 13.5861 5.21311C13.2111 4.83811 13.0004 4.32951 13.0004 3.79918ZM5.10201 8.72719C4.82237 8.44753 4.63194 8.09124 4.55479 7.70336C4.47764 7.31548 4.51725 6.91343 4.66859 6.54806C4.81994 6.18269 5.07623 5.8704 5.40506 5.65069C5.73389 5.43097 6.12049 5.3137 6.51597 5.3137C6.91145 5.3137 7.29804 5.43097 7.62687 5.65069C7.9557 5.8704 8.212 6.18269 8.36334 6.54806C8.51469 6.91343 8.5543 7.31548 8.47715 7.70336C8.4 8.09124 8.20957 8.44753 7.92993 8.72719C7.7451 8.91438 7.52493 9.06301 7.28221 9.16445C7.03949 9.26589 6.77904 9.31812 6.51597 9.31812C6.2529 9.31812 5.99245 9.26589 5.74973 9.16445C5.50701 9.06301 5.28684 8.91438 5.10201 8.72719ZM7.93043 25.6947C7.54928 26.058 7.04297 26.2606 6.51647 26.2606C5.98997 26.2606 5.48365 26.058 5.10251 25.6947C4.82287 25.4151 4.63243 25.0588 4.55529 24.6709C4.47814 24.283 4.51775 23.881 4.66909 23.5156C4.82044 23.1502 5.07674 22.838 5.40556 22.6182C5.73439 22.3985 6.12099 22.2813 6.51647 22.2813C6.91195 22.2813 7.29854 22.3985 7.62737 22.6182C7.9562 22.838 8.2125 23.1502 8.36384 23.5156C8.51519 23.881 8.5548 24.283 8.47765 24.6709C8.4005 25.0588 8.21007 25.4151 7.93043 25.6947ZM16.9996 27.7943C16.9996 28.1898 16.8823 28.5764 16.6626 28.9052C16.4429 29.2341 16.1306 29.4904 15.7652 29.6417C15.3998 29.7931 14.9978 29.8326 14.6099 29.7555C14.222 29.6783 13.8657 29.4879 13.5861 29.2082C13.3064 28.9286 13.116 28.5723 13.0388 28.1844C12.9617 27.7965 13.0013 27.3945 13.1526 27.0291C13.304 26.6637 13.5603 26.3514 13.8891 26.1317C14.2179 25.912 14.6045 25.7947 15 25.7947C15.5303 25.7947 16.0389 26.0054 16.4139 26.3804C16.7889 26.7554 16.9996 27.264 16.9996 27.7943ZM13.5858 17.2105C13.3062 16.9308 13.1159 16.5745 13.0388 16.1866C12.9617 15.7988 13.0013 15.3968 13.1527 15.0314C13.3041 14.6661 13.5604 14.3538 13.8892 14.1342C14.218 13.9145 14.6046 13.7972 15 13.7972C15.3954 13.7972 15.782 13.9145 16.1108 14.1342C16.4396 14.3538 16.6959 14.6661 16.8473 15.0314C16.9987 15.3968 17.0383 15.7988 16.9612 16.1866C16.8841 16.5745 16.6938 16.9308 16.4142 17.2105C16.033 17.5738 15.5266 17.7765 15 17.7765C14.4734 17.7765 13.967 17.5738 13.5858 17.2105ZM24.898 22.8663C25.0837 23.052 25.231 23.2724 25.3315 23.515C25.432 23.7577 25.4837 24.0177 25.4837 24.2803C25.4837 24.5429 25.432 24.8029 25.3315 25.0455C25.231 25.2881 25.0837 25.5086 24.898 25.6942C24.5173 26.0581 24.0109 26.2612 23.4843 26.2612C22.9576 26.2612 22.4513 26.0581 22.0706 25.6942C21.7025 25.3179 21.4976 24.8115 21.5005 24.2851C21.5034 23.7587 21.7138 23.2546 22.0861 22.8823C22.4583 22.51 22.9623 22.2995 23.4887 22.2965C24.0152 22.2935 24.5216 22.4983 24.898 22.8663ZM26.9976 17.7963C26.6021 17.7963 26.2155 17.6791 25.8867 17.4594C25.5578 17.2396 25.3015 16.9273 25.1502 16.562C24.9988 16.1966 24.9592 15.7945 25.0364 15.4067C25.1136 15.0188 25.304 14.6625 25.5836 14.3828C25.8633 14.1032 26.2196 13.9127 26.6075 13.8356C26.9953 13.7584 27.3974 13.798 27.7628 13.9494C28.1282 14.1007 28.4405 14.357 28.6602 14.6858C28.8799 15.0147 28.9972 15.4013 28.9972 15.7968C28.9972 16.3271 28.7865 16.8357 28.4115 17.2107C28.0365 17.5857 27.5279 17.7963 26.9976 17.7963Z" fill="#DD2D4A"/>
</g>
<defs>
<clipPath id="clip0_5368_10534">
<rect width="30" height="30" fill="white" transform="translate(0 0.796753)"/>
</clipPath>
</defs>
</svg>
