<svg width="38" height="41" viewBox="0 0 38 41" fill="none" xmlns="http://www.w3.org/2000/svg">
<path d="M37.1525 7.16933C36.974 6.04851 35.9926 5.21207 34.8607 5.21207C34.8551 5.21207 34.8439 5.21207 34.8384 5.21207C27.8012 5.28456 21.0149 7.79387 15.6227 12.2883C15.4554 10.3143 14.8922 8.39052 13.9609 6.62843C12.6896 4.22508 10.7769 2.21764 8.44048 0.823578C7.4981 0.260379 6.32151 0.416513 5.58545 1.20276C2.08358 4.93326 0.198811 9.80688 0.282454 14.9259C0.360521 19.8553 2.25644 24.4947 5.63564 28.0579C5.31779 29.2735 5.07801 30.5114 4.9163 31.7717C4.84939 32.2902 5.21184 32.7642 5.73601 32.8367C5.77504 32.8423 5.81965 32.8423 5.85868 32.8423C6.32709 32.8423 6.73415 32.4966 6.79549 32.017C6.96836 30.7066 7.22486 29.4241 7.57059 28.1806C7.60962 28.0969 7.63193 28.0133 7.64308 27.9241C11.0613 15.9407 22.1134 7.24182 34.8718 7.10799C34.8718 7.10799 34.8718 7.10799 34.8774 7.10799C35.0781 7.10799 35.2677 7.2697 35.3012 7.46487C36.0038 11.898 36.0261 16.3924 35.3681 20.8311C35.3569 20.8645 35.3458 20.898 35.3402 20.9315C34.0298 26.5579 30.3718 31.3646 25.2918 34.1137C20.8141 36.5449 15.6004 37.1806 10.71 35.9483C12.3606 34.8609 13.9442 33.6676 15.4554 32.3683C19.4424 28.9389 22.7937 24.885 25.4145 20.3292C25.6766 19.8776 25.5205 19.2976 25.0632 19.0355C24.6115 18.7735 24.0316 18.9296 23.7695 19.3868C19.9442 25.9947 14.474 31.5151 7.97208 35.4074C7.94419 35.4185 7.92189 35.4352 7.89401 35.452C5.8085 36.6955 3.62262 37.7661 1.34751 38.6583C0.862383 38.8479 0.617028 39.3999 0.812196 39.8851C0.957178 40.2587 1.31406 40.4873 1.69324 40.4873C1.81034 40.4873 1.92744 40.465 2.03897 40.4204C4.29176 39.5393 6.45534 38.491 8.5297 37.281C10.8383 38.0616 13.236 38.452 15.6282 38.452C19.2751 38.452 22.9052 37.5542 26.1729 35.7754C31.6711 32.7977 35.6525 27.6118 37.119 21.5393C37.1525 21.4612 37.1804 21.3776 37.1915 21.2883C37.9109 16.6043 37.8941 11.8534 37.1525 7.16933ZM9.80108 18.7456C9.78993 17.7307 9.74532 16.7883 9.66725 15.885C9.49439 13.9556 9.16539 11.9259 8.66353 9.66748C8.552 9.15447 8.04457 8.83662 7.53155 8.94814C7.01854 9.05967 6.7007 9.56711 6.81222 10.0801C7.29735 12.2549 7.6152 14.2065 7.77691 16.0523C7.93304 17.8199 7.94977 19.766 7.82152 22.1582C7.21929 23.3739 6.69512 24.6285 6.26017 25.9222C0.550114 19.108 0.745282 9.10986 6.9572 2.49645C7.07988 2.36262 7.29178 2.34589 7.46464 2.44626C11.5297 4.86634 13.9219 9.24926 13.7714 13.9556C12.2769 15.4221 10.9498 17.0281 9.80108 18.7456Z" fill="#DD2D4A"/>
</svg>
