<svg width="32" height="33" viewBox="0 0 32 33" fill="none" xmlns="http://www.w3.org/2000/svg">
<path d="M30.914 25.5285C31.2191 25.5285 31.4663 25.7758 31.4664 26.0809V29.9475C31.4664 30.8627 30.7244 31.6047 29.8092 31.6047H2.19034C1.27516 31.6047 0.533203 30.8628 0.533203 29.9475V26.0809C0.533224 25.7758 0.780598 25.5285 1.08558 25.5285C1.39058 25.5285 1.63794 25.7758 1.63796 26.0809V29.9475C1.63796 30.2526 1.88526 30.4999 2.19034 30.4999H29.8092C30.1143 30.4999 30.3616 30.2526 30.3616 29.9475V26.0809C30.3616 25.7758 30.6089 25.5285 30.914 25.5285Z" fill="#DD2D4A"/>
<path d="M4.95223 25.5285C5.25722 25.5285 5.50458 25.7758 5.5046 26.0809V28.8428C5.5046 29.1478 5.25723 29.3951 4.95223 29.3951C4.64721 29.3951 4.39985 29.1478 4.39985 28.8428V26.0809C4.39987 25.7758 4.64722 25.5285 4.95223 25.5285Z" fill="#DD2D4A"/>
<path d="M9.37125 25.5285C9.67625 25.5285 9.92361 25.7758 9.92363 26.0809V28.8428C9.92363 29.1478 9.67633 29.3951 9.37125 29.3951C9.06617 29.3951 8.81887 29.1478 8.81887 28.8428V26.0809C8.81889 25.7758 9.06625 25.5285 9.37125 25.5285Z" fill="#DD2D4A"/>
<path d="M13.7903 25.5285C14.0953 25.5285 14.3426 25.7758 14.3427 26.0809V28.8428C14.3427 29.1478 14.0953 29.3951 13.7903 29.3951C13.4853 29.3951 13.2379 29.1478 13.2379 28.8428V26.0809C13.2379 25.7758 13.4853 25.5285 13.7903 25.5285Z" fill="#DD2D4A"/>
<path d="M18.2093 25.5285C18.5143 25.5285 18.7617 25.7758 18.7617 26.0809V28.8428C18.7617 29.1478 18.5143 29.3951 18.2093 29.3951C17.9043 29.3951 17.6569 29.1478 17.6569 28.8428V26.0809C17.6569 25.7758 17.9042 25.5285 18.2093 25.5285Z" fill="#DD2D4A"/>
<path d="M22.6283 25.5285C22.9334 25.5285 23.1807 25.7758 23.1807 26.0809V28.8428C23.1807 29.1478 22.9334 29.3951 22.6283 29.3951C22.3232 29.3951 22.0759 29.1478 22.0759 28.8428V26.0809C22.076 25.7758 22.3233 25.5285 22.6283 25.5285Z" fill="#DD2D4A"/>
<path d="M27.0473 25.5285C27.3524 25.5285 27.5997 25.7758 27.5997 26.0809V28.8428C27.5997 29.1478 27.3524 29.3951 27.0473 29.3951C26.7423 29.3951 26.495 29.1478 26.495 28.8428V26.0809C26.495 25.7758 26.7423 25.5285 27.0473 25.5285Z" fill="#DD2D4A"/>
<path d="M30.0164 20.716C30.2741 20.5529 30.616 20.6298 30.7791 20.8875L31.2927 21.6999C31.5075 22.0395 31.5202 22.4695 31.3272 22.8219C31.1336 23.1741 30.7636 23.393 30.3616 23.3926H1.63796C1.23631 23.3911 0.866806 23.1718 0.673455 22.8198C0.480161 22.4677 0.493719 22.0385 0.707979 21.6988L1.22044 20.8875C1.32602 20.7208 1.51301 20.6227 1.71024 20.6307C1.90743 20.6388 2.08578 20.7516 2.17739 20.9264C2.26904 21.1011 2.26026 21.312 2.15473 21.4787L1.6412 22.2911L30.3616 22.2879L29.8448 21.4787C29.6817 21.221 29.7587 20.8792 30.0164 20.716Z" fill="#DD2D4A"/>
<path d="M30.0218 15.8301C30.2796 15.6667 30.621 15.7428 30.7845 16.0005L31.2927 16.8021C31.5062 17.1418 31.5183 17.5704 31.325 17.922C31.1316 18.2738 30.763 18.4933 30.3616 18.4949H1.63796C1.2363 18.4934 0.866811 18.2741 0.673455 17.922C0.480113 17.5699 0.493688 17.1408 0.707979 16.8011L1.21504 16.0005C1.37861 15.7427 1.72005 15.6666 1.9778 15.8301C2.23563 15.9937 2.31285 16.3351 2.14934 16.5928L1.64012 17.3934L30.3616 17.3901L29.8502 16.5928C29.6867 16.335 29.764 15.9936 30.0218 15.8301Z" fill="#DD2D4A"/>
<path d="M7.71412 10.2829C8.01914 10.2829 8.26646 10.5302 8.26649 10.8352C8.26649 11.1403 8.01916 11.3876 7.71412 11.3876C7.40906 11.3876 7.16174 11.1403 7.16174 10.8352C7.16177 10.5302 7.40908 10.2829 7.71412 10.2829Z" fill="#DD2D4A"/>
<path d="M12.6855 10.2829C12.9906 10.2829 13.2379 10.5302 13.2379 10.8352C13.2379 11.1403 12.9906 11.3876 12.6855 11.3876C12.3805 11.3876 12.1331 11.1403 12.1331 10.8352C12.1332 10.5302 12.3805 10.2829 12.6855 10.2829Z" fill="#DD2D4A"/>
<path d="M19.3141 10.2829C19.6191 10.2829 19.8664 10.5302 19.8664 10.8352C19.8664 11.1403 19.6191 11.3876 19.3141 11.3876C19.009 11.3876 18.7617 11.1403 18.7617 10.8352C18.7617 10.5302 19.009 10.2829 19.3141 10.2829Z" fill="#DD2D4A"/>
<path d="M24.2855 10.2829C24.5905 10.2829 24.8378 10.5302 24.8378 10.8352C24.8378 11.1403 24.5905 11.3876 24.2855 11.3876C23.9804 11.3876 23.7331 11.1403 23.7331 10.8352C23.7331 10.5302 23.9804 10.2829 24.2855 10.2829Z" fill="#DD2D4A"/>
<path d="M8.81887 7.52097C9.12392 7.52097 9.37123 7.76831 9.37125 8.07334C9.37125 8.3784 9.12393 8.62572 8.81887 8.62572C8.51381 8.62572 8.26649 8.3784 8.26649 8.07334C8.26652 7.76831 8.51383 7.52097 8.81887 7.52097Z" fill="#DD2D4A"/>
<path d="M13.2379 7.52097C13.5429 7.52098 13.7903 7.76831 13.7903 8.07334C13.7903 8.37839 13.5429 8.62571 13.2379 8.62572C12.9328 8.62572 12.6855 8.3784 12.6855 8.07334C12.6855 7.76831 12.9329 7.52097 13.2379 7.52097Z" fill="#DD2D4A"/>
<path d="M18.7617 7.52097C19.0667 7.52097 19.314 7.76831 19.3141 8.07334C19.3141 8.3784 19.0667 8.62572 18.7617 8.62572C18.4566 8.62571 18.2093 8.37839 18.2093 8.07334C18.2093 7.76831 18.4566 7.52098 18.7617 7.52097Z" fill="#DD2D4A"/>
<path d="M23.1807 7.52097C23.4857 7.52097 23.7331 7.76831 23.7331 8.07334C23.7331 8.3784 23.4858 8.62572 23.1807 8.62572C22.8756 8.62572 22.6283 8.3784 22.6283 8.07334C22.6283 7.76831 22.8757 7.52097 23.1807 7.52097Z" fill="#DD2D4A"/>
<path d="M9.92363 4.75908C10.2287 4.75908 10.476 5.00644 10.476 5.31145C10.476 5.61651 10.2287 5.86383 9.92363 5.86383C9.61858 5.86382 9.37125 5.61651 9.37125 5.31145C9.3713 5.00644 9.61861 4.75909 9.92363 4.75908Z" fill="#DD2D4A"/>
<path d="M13.7903 4.75908C14.0953 4.75908 14.3426 5.00644 14.3427 5.31145C14.3427 5.61651 14.0953 5.86383 13.7903 5.86383C13.4852 5.86382 13.2379 5.61651 13.2379 5.31145C13.2379 5.00644 13.4853 4.75909 13.7903 4.75908Z" fill="#DD2D4A"/>
<path d="M18.2093 4.75908C18.5143 4.75909 18.7616 5.00644 18.7617 5.31145C18.7617 5.61651 18.5143 5.86382 18.2093 5.86383C17.9042 5.86383 17.6569 5.61651 17.6569 5.31145C17.657 5.00644 17.9043 4.75908 18.2093 4.75908Z" fill="#DD2D4A"/>
<path d="M22.0759 4.75908C22.381 4.75909 22.6283 5.00644 22.6283 5.31145C22.6283 5.61651 22.381 5.86382 22.0759 5.86383C21.7709 5.86383 21.5236 5.61651 21.5236 5.31145C21.5236 5.00644 21.7709 4.75908 22.0759 4.75908Z" fill="#DD2D4A"/>
<path fill-rule="evenodd" clip-rule="evenodd" d="M24.4667 2.54957C25.0359 2.54829 25.5658 2.84081 25.8681 3.32311L31.2959 11.9141C31.5108 12.2544 31.5236 12.6847 31.3294 13.0372C31.135 13.3897 30.7642 13.609 30.3616 13.609H1.63796C1.23574 13.6086 0.865352 13.3895 0.671298 13.0372C0.477267 12.6848 0.490009 12.2542 0.704742 11.9141L6.13142 3.32311C6.43371 2.84068 6.96357 2.54816 7.53287 2.54957H24.4667ZM7.53287 3.65432C7.34328 3.65427 7.16695 3.75184 7.06572 3.91217L1.63796 12.5042V12.5075L30.3616 12.5042L24.9338 3.91217C24.8326 3.75186 24.6563 3.65423 24.4667 3.65432H7.53287Z" fill="#DD2D4A"/>
</svg>
