<svg width="24" height="22" viewBox="0 0 24 22" fill="none" xmlns="http://www.w3.org/2000/svg">
<g clip-path="url(#clip0_5368_4018)">
<path d="M14.7161 1.375C15.0959 1.37458 15.4724 1.44883 15.8235 1.59375C16.1744 1.73867 16.4932 1.9516 16.762 2.21973C17.0308 2.48792 17.2441 2.8066 17.3899 3.15723C17.5356 3.50786 17.6111 3.88398 17.6116 4.26367V7.55176C17.6116 7.66449 17.5671 7.77272 17.4875 7.85254C17.4077 7.93241 17.2987 7.97754 17.1858 7.97754C17.0729 7.9775 16.9648 7.93237 16.885 7.85254C16.8052 7.77269 16.76 7.66465 16.76 7.55176V4.26367C16.7599 3.72168 16.5446 3.20161 16.1614 2.81836C15.7781 2.43513 15.2581 2.21978 14.7161 2.21973H3.22583C2.6838 2.21973 2.16385 2.43516 1.78052 2.81836C1.39726 3.20161 1.182 3.72168 1.18188 4.26367V17.7354C1.18189 18.2775 1.39716 18.7973 1.78052 19.1807C2.16387 19.564 2.68369 19.7793 3.22583 19.7793H14.7092C15.2513 19.7793 15.7712 19.564 16.1545 19.1807C16.5378 18.7973 16.7532 18.2775 16.7532 17.7354V16.2803C16.7532 16.1674 16.7984 16.0593 16.8782 15.9795C16.958 15.8997 17.0661 15.8545 17.179 15.8545C17.2919 15.8545 17.4008 15.8996 17.4807 15.9795C17.5603 16.0593 17.6047 16.1676 17.6047 16.2803V17.7354C17.6038 18.5013 17.2996 19.2357 16.7581 19.7773C16.2165 20.3189 15.482 20.6231 14.7161 20.624H3.22583C2.4593 20.624 1.72424 20.32 1.18188 19.7783C0.639532 19.2366 0.334159 18.5019 0.333252 17.7354V4.26367C0.334274 3.49728 0.639635 2.76232 1.18188 2.2207C1.72422 1.67915 2.4594 1.375 3.22583 1.375H14.7161ZM20.177 6.53028C20.6783 6.50346 21.1701 6.67602 21.5442 7.01074C21.7328 7.17702 21.8866 7.37919 21.9963 7.60547C22.106 7.83178 22.1692 8.07798 22.1829 8.3291C22.1965 8.58018 22.1599 8.83153 22.0754 9.06836C21.9909 9.30521 21.8602 9.52324 21.6907 9.70899L15.2649 16.8643C15.2141 16.9197 15.1492 16.961 15.0774 16.9834L12.5872 17.7871C12.5276 17.805 12.4657 17.8142 12.4036 17.8145C12.3137 17.8158 12.2244 17.7964 12.1428 17.7588C12.0612 17.7211 11.9882 17.666 11.9309 17.5967C11.8737 17.5274 11.8333 17.4457 11.8118 17.3584C11.7902 17.2711 11.7885 17.1798 11.8069 17.0918L12.3352 14.5195C12.3502 14.4462 12.3842 14.3782 12.4338 14.3223L18.8694 7.1543C19.2056 6.78164 19.6758 6.55716 20.177 6.53028ZM12.7336 16.833L14.5393 16.251L13.1155 14.9727L12.7336 16.833ZM20.2122 7.41992C19.9454 7.42741 19.6916 7.53762 19.5032 7.72656L13.6057 14.2783L15.1594 15.6709L21.053 9.11621C21.2204 8.90831 21.3021 8.64398 21.2805 8.37793C21.2589 8.11212 21.1362 7.86464 20.9377 7.68653C20.739 7.50833 20.479 7.41249 20.2122 7.41992ZM11.1643 11.6367C11.2772 11.6367 11.3852 11.6819 11.4651 11.7617C11.5449 11.8416 11.5901 11.9496 11.5901 12.0625C11.5901 12.1754 11.5449 12.2834 11.4651 12.3633C11.3852 12.4431 11.2772 12.4883 11.1643 12.4883H4.052C3.93909 12.4883 3.83107 12.4431 3.75122 12.3633C3.67141 12.2834 3.62622 12.1754 3.62622 12.0625C3.62625 11.9496 3.67138 11.8416 3.75122 11.7617C3.83107 11.6819 3.93909 11.6367 4.052 11.6367H11.1643ZM13.8899 8.37305C14.0028 8.37307 14.1108 8.4182 14.1907 8.49805C14.2705 8.57789 14.3156 8.68591 14.3157 8.79883C14.3157 8.91174 14.2705 9.01975 14.1907 9.09961C14.1108 9.17946 14.0028 9.22459 13.8899 9.22461H4.052C3.93909 9.22459 3.83107 9.17946 3.75122 9.09961C3.67141 9.01975 3.62622 8.91174 3.62622 8.79883C3.62625 8.68591 3.67138 8.57789 3.75122 8.49805C3.83107 8.4182 3.93909 8.37307 4.052 8.37305H13.8899ZM13.8899 5.11133C14.0028 5.11135 14.1108 5.15649 14.1907 5.23633C14.2705 5.31617 14.3156 5.4242 14.3157 5.53711C14.3157 5.65002 14.2705 5.75803 14.1907 5.83789C14.1108 5.91774 14.0028 5.96287 13.8899 5.96289H4.052C3.93909 5.96287 3.83107 5.91774 3.75122 5.83789C3.67141 5.75803 3.62622 5.65002 3.62622 5.53711C3.62625 5.4242 3.67138 5.31617 3.75122 5.23633C3.83107 5.15649 3.93909 5.11135 4.052 5.11133H13.8899Z" fill="#DD2D4A"/>
<path d="M14.7161 1.375V1.475L14.7162 1.475L14.7161 1.375ZM15.8235 1.59375L15.8617 1.50132L15.8616 1.50132L15.8235 1.59375ZM16.762 2.21973L16.8326 2.14893L16.8326 2.14893L16.762 2.21973ZM17.3899 3.15723L17.4822 3.11885L17.4822 3.11884L17.3899 3.15723ZM17.6116 4.26367H17.7116V4.26354L17.6116 4.26367ZM17.4875 7.85254L17.5583 7.92325L17.5584 7.92314L17.4875 7.85254ZM17.1858 7.97754L17.1858 8.07754H17.1858V7.97754ZM16.885 7.85254L16.8143 7.92322L16.8143 7.92325L16.885 7.85254ZM16.76 7.55176H16.66H16.76ZM16.76 4.26367H16.86V4.26365L16.76 4.26367ZM16.1614 2.81836L16.2321 2.74765L16.2321 2.74764L16.1614 2.81836ZM14.7161 2.21973L14.7161 2.11973H14.7161V2.21973ZM3.22583 2.21973V2.11973V2.21973ZM1.78052 2.81836L1.70982 2.74764L1.70981 2.74765L1.78052 2.81836ZM1.18188 4.26367L1.08188 4.26365V4.26367H1.18188ZM1.18188 17.7354H1.08188H1.18188ZM1.78052 19.1807L1.70981 19.2514L1.70981 19.2514L1.78052 19.1807ZM3.22583 19.7793V19.8793V19.7793ZM14.7092 19.7793V19.8793H14.7092L14.7092 19.7793ZM16.1545 19.1807L16.2253 19.2514L16.2253 19.2514L16.1545 19.1807ZM16.7532 17.7354H16.8532H16.7532ZM16.7532 16.2803L16.6532 16.2802V16.2803H16.7532ZM16.8782 15.9795L16.8075 15.9088L16.8075 15.9088L16.8782 15.9795ZM17.179 15.8545V15.7545H17.1789L17.179 15.8545ZM17.4807 15.9795L17.5515 15.9088L17.5514 15.9088L17.4807 15.9795ZM17.6047 16.2803H17.7047V16.2802L17.6047 16.2803ZM17.6047 17.7354L17.7047 17.7355V17.7354H17.6047ZM16.7581 19.7773L16.8288 19.8481L16.8288 19.8481L16.7581 19.7773ZM14.7161 20.624V20.724H14.7162L14.7161 20.624ZM3.22583 20.624V20.524V20.624ZM1.18188 19.7783L1.11122 19.8491H1.11122L1.18188 19.7783ZM0.333252 17.7354H0.233252L0.233252 17.7355L0.333252 17.7354ZM0.333252 4.26367L0.233252 4.26354V4.26367H0.333252ZM1.18188 2.2207L1.11122 2.14994L1.11122 2.14995L1.18188 2.2207ZM3.22583 1.375V1.475V1.375ZM20.177 6.53028L20.1717 6.43042L20.1716 6.43042L20.177 6.53028ZM21.5442 7.01074L21.4775 7.08527L21.4781 7.08576L21.5442 7.01074ZM21.9963 7.60547L22.0863 7.56185L22.0863 7.56185L21.9963 7.60547ZM22.1829 8.3291L22.2827 8.32368L22.2827 8.32367L22.1829 8.3291ZM22.0754 9.06836L22.1696 9.10198L22.1696 9.10196L22.0754 9.06836ZM21.6907 9.70899L21.6168 9.64157L21.6163 9.64217L21.6907 9.70899ZM15.2649 16.8643L15.3387 16.9318L15.3393 16.9311L15.2649 16.8643ZM15.0774 16.9834L15.0476 16.8879L15.0467 16.8882L15.0774 16.9834ZM12.5872 17.7871L12.6159 17.8829L12.6179 17.8823L12.5872 17.7871ZM12.4036 17.8145L12.4032 17.7144L12.402 17.7145L12.4036 17.8145ZM12.1428 17.7588L12.1009 17.8496L12.1009 17.8496L12.1428 17.7588ZM11.9309 17.5967L11.8538 17.6603L11.8538 17.6603L11.9309 17.5967ZM11.8118 17.3584L11.7147 17.3824L11.7147 17.3824L11.8118 17.3584ZM11.8069 17.0918L11.9048 17.1123L11.9048 17.1119L11.8069 17.0918ZM12.3352 14.5195L12.4332 14.5397L12.4332 14.5396L12.3352 14.5195ZM12.4338 14.3223L12.3594 14.2555L12.3591 14.2559L12.4338 14.3223ZM18.8694 7.1543L18.7951 7.08732L18.795 7.08749L18.8694 7.1543ZM12.7336 16.833L12.6357 16.8129L12.6012 16.9808L12.7643 16.9282L12.7336 16.833ZM14.5393 16.251L14.57 16.3462L14.7356 16.2928L14.6061 16.1766L14.5393 16.251ZM13.1155 14.9727L13.1823 14.8982L13.0526 14.7818L13.0175 14.9526L13.1155 14.9727ZM20.2122 7.41992L20.2094 7.31996L20.2094 7.31996L20.2122 7.41992ZM19.5032 7.72656L19.4323 7.65585L19.4289 7.65966L19.5032 7.72656ZM13.6057 14.2783L13.5314 14.2114L13.4643 14.2859L13.539 14.3528L13.6057 14.2783ZM15.1594 15.6709L15.0927 15.7454L15.167 15.812L15.2338 15.7378L15.1594 15.6709ZM21.053 9.11621L21.1275 9.18317L21.1309 9.17893L21.053 9.11621ZM21.2805 8.37793L21.3802 8.36984L21.3802 8.36982L21.2805 8.37793ZM20.9377 7.68653L21.0045 7.6121L21.0045 7.61207L20.9377 7.68653ZM11.1643 11.6367L11.1643 11.5367H11.1643V11.6367ZM11.4651 11.7617L11.5358 11.691H11.5358L11.4651 11.7617ZM11.5901 12.0625H11.6901V12.0625L11.5901 12.0625ZM11.4651 12.3633L11.5358 12.434L11.5358 12.434L11.4651 12.3633ZM11.1643 12.4883V12.5883H11.1643L11.1643 12.4883ZM4.052 12.4883L4.05198 12.5883H4.052V12.4883ZM3.75122 12.3633L3.68049 12.434L3.68051 12.434L3.75122 12.3633ZM3.62622 12.0625L3.52622 12.0625V12.0625H3.62622ZM3.75122 11.7617L3.68051 11.691H3.68051L3.75122 11.7617ZM4.052 11.6367V11.5367H4.05198L4.052 11.6367ZM13.8899 8.37305L13.8899 8.27305H13.8899V8.37305ZM14.1907 8.49805L14.2614 8.42734L14.2614 8.42734L14.1907 8.49805ZM14.3157 8.79883H14.4157V8.79881L14.3157 8.79883ZM14.1907 9.09961L14.2614 9.17032L14.2614 9.1703L14.1907 9.09961ZM13.8899 9.22461V9.32461H13.8899L13.8899 9.22461ZM4.052 9.22461L4.05198 9.32461H4.052V9.22461ZM3.75122 9.09961L3.68049 9.1703L3.68051 9.17032L3.75122 9.09961ZM3.62622 8.79883L3.52622 8.79881V8.79883H3.62622ZM3.75122 8.49805L3.68051 8.42734L3.68051 8.42734L3.75122 8.49805ZM4.052 8.37305V8.27305H4.05198L4.052 8.37305ZM13.8899 5.11133L13.8899 5.01133H13.8899V5.11133ZM14.1907 5.23633L14.2614 5.16562L14.2614 5.16562L14.1907 5.23633ZM14.3157 5.53711H14.4157V5.53709L14.3157 5.53711ZM14.1907 5.83789L14.2614 5.9086L14.2614 5.90858L14.1907 5.83789ZM13.8899 5.96289V6.06289H13.8899L13.8899 5.96289ZM4.052 5.96289L4.05198 6.06289H4.052V5.96289ZM3.75122 5.83789L3.68049 5.90858L3.68051 5.9086L3.75122 5.83789ZM3.62622 5.53711L3.52622 5.53709V5.53711H3.62622ZM3.75122 5.23633L3.68051 5.16562H3.68051L3.75122 5.23633ZM4.052 5.11133V5.01133H4.05198L4.052 5.11133ZM14.7161 1.375L14.7162 1.475C15.0829 1.47459 15.4464 1.54628 15.7853 1.68618L15.8235 1.59375L15.8616 1.50132C15.4984 1.35137 15.1088 1.27456 14.716 1.275L14.7161 1.375ZM15.8235 1.59375L15.7853 1.68618C16.124 1.82606 16.4318 2.03162 16.6913 2.29053L16.762 2.21973L16.8326 2.14893C16.5545 1.87158 16.2248 1.65128 15.8617 1.50132L15.8235 1.59375ZM16.762 2.21973L16.6913 2.29052C16.9508 2.54942 17.1568 2.85709 17.2976 3.19562L17.3899 3.15723L17.4822 3.11884C17.3314 2.75611 17.1107 2.42641 16.8326 2.14893L16.762 2.21973ZM17.3899 3.15723L17.2976 3.19561C17.4382 3.53414 17.5111 3.89726 17.5116 4.26381L17.6116 4.26367L17.7116 4.26354C17.711 3.87069 17.633 3.48158 17.4822 3.11885L17.3899 3.15723ZM17.6116 4.26367H17.5116V7.55176H17.6116H17.7116V4.26367H17.6116ZM17.6116 7.55176H17.5116C17.5116 7.63819 17.4775 7.72099 17.4167 7.78194L17.4875 7.85254L17.5584 7.92314C17.6568 7.82445 17.7116 7.69078 17.7116 7.55176H17.6116ZM17.4875 7.85254L17.4168 7.78183C17.3557 7.84295 17.2722 7.87754 17.1858 7.87754V7.97754V8.07754C17.3253 8.07754 17.4596 8.02187 17.5583 7.92325L17.4875 7.85254ZM17.1858 7.97754L17.1858 7.87754C17.0997 7.87751 17.017 7.84307 16.9557 7.78183L16.885 7.85254L16.8143 7.92325C16.9127 8.02168 17.0461 8.07749 17.1858 8.07754L17.1858 7.97754ZM16.885 7.85254L16.9557 7.78186C16.8945 7.72055 16.86 7.63785 16.86 7.55176H16.76H16.66C16.66 7.69145 16.716 7.82482 16.8143 7.92322L16.885 7.85254ZM16.76 7.55176H16.86V4.26367H16.76H16.66V7.55176H16.76ZM16.76 4.26367L16.86 4.26365C16.8599 3.69518 16.6341 3.14967 16.2321 2.74765L16.1614 2.81836L16.0907 2.88907C16.4552 3.25356 16.6599 3.74819 16.66 4.2637L16.76 4.26367ZM16.1614 2.81836L16.2321 2.74764C15.83 2.34566 15.2846 2.11978 14.7161 2.11973L14.7161 2.21973L14.7161 2.31973C15.2316 2.31978 15.7261 2.5246 16.0907 2.88908L16.1614 2.81836ZM14.7161 2.21973V2.11973H3.22583V2.21973V2.31973H14.7161V2.21973ZM3.22583 2.21973V2.11973C2.65727 2.11973 2.1119 2.3457 1.70982 2.74764L1.78052 2.81836L1.85122 2.88908C2.21581 2.52462 2.71033 2.31973 3.22583 2.31973V2.21973ZM1.78052 2.81836L1.70981 2.74765C1.30779 3.14967 1.08201 3.69518 1.08188 4.26365L1.18188 4.26367L1.28188 4.2637C1.282 3.74819 1.48674 3.25356 1.85123 2.88907L1.78052 2.81836ZM1.18188 4.26367H1.08188V17.7354H1.18188H1.28188V4.26367H1.18188ZM1.18188 17.7354H1.08188C1.08189 18.304 1.30769 18.8493 1.70981 19.2514L1.78052 19.1807L1.85123 19.11C1.48663 18.7454 1.28189 18.251 1.28188 17.7354H1.18188ZM1.78052 19.1807L1.70981 19.2514C2.11192 19.6535 2.65717 19.8793 3.22583 19.8793V19.7793V19.6793C2.71021 19.6793 2.21583 19.4745 1.85123 19.11L1.78052 19.1807ZM3.22583 19.7793V19.8793H14.7092V19.7793V19.6793H3.22583V19.7793ZM14.7092 19.7793L14.7092 19.8793C15.2778 19.8793 15.8232 19.6535 16.2253 19.2514L16.1545 19.1807L16.0838 19.11C15.7193 19.4745 15.2248 19.6793 14.7092 19.6793L14.7092 19.7793ZM16.1545 19.1807L16.2253 19.2514C16.6273 18.8493 16.8532 18.304 16.8532 17.7354H16.7532H16.6532C16.6532 18.2509 16.4484 18.7454 16.0838 19.11L16.1545 19.1807ZM16.7532 17.7354H16.8532V16.2803H16.7532H16.6532V17.7354H16.7532ZM16.7532 16.2803L16.8532 16.2803C16.8532 16.1942 16.8877 16.1114 16.9489 16.0502L16.8782 15.9795L16.8075 15.9088C16.7091 16.0072 16.6533 16.1407 16.6532 16.2802L16.7532 16.2803ZM16.8782 15.9795L16.9489 16.0502C17.0101 15.989 17.0929 15.9545 17.179 15.9545L17.179 15.8545L17.1789 15.7545C17.0393 15.7545 16.9059 15.8104 16.8075 15.9088L16.8782 15.9795ZM17.179 15.8545V15.9545C17.2654 15.9545 17.3489 15.9891 17.41 16.0502L17.4807 15.9795L17.5514 15.9088C17.4528 15.8102 17.3184 15.7545 17.179 15.7545V15.8545ZM17.4807 15.9795L17.4099 16.0501C17.4707 16.111 17.5047 16.1938 17.5047 16.2803L17.6047 16.2803L17.7047 16.2802C17.7046 16.1413 17.65 16.0076 17.5515 15.9088L17.4807 15.9795ZM17.6047 16.2803H17.5047V17.7354H17.6047H17.7047V16.2803H17.6047ZM17.6047 17.7354L17.5047 17.7352C17.5039 18.4747 17.2102 19.1838 16.6873 19.7066L16.7581 19.7773L16.8288 19.8481C17.3891 19.2877 17.7038 18.5278 17.7047 17.7355L17.6047 17.7354ZM16.7581 19.7773L16.6873 19.7066C16.1645 20.2294 15.4554 20.5231 14.7159 20.524L14.7161 20.624L14.7162 20.724C15.5085 20.723 16.2684 20.4084 16.8288 19.8481L16.7581 19.7773ZM14.7161 20.624V20.524H3.22583V20.624V20.724H14.7161V20.624ZM3.22583 20.624V20.524C2.48578 20.524 1.77614 20.2305 1.25255 19.7076L1.18188 19.7783L1.11122 19.8491C1.67233 20.4095 2.43281 20.724 3.22583 20.724V20.624ZM1.18188 19.7783L1.25255 19.7076C0.728934 19.1846 0.434128 18.4753 0.433252 17.7352L0.333252 17.7354L0.233252 17.7355C0.234191 18.5285 0.550131 19.2887 1.11122 19.8491L1.18188 19.7783ZM0.333252 17.7354H0.433252V4.26367H0.333252H0.233252V17.7354H0.333252ZM0.333252 4.26367L0.433252 4.26381C0.434239 3.52392 0.729044 2.81435 1.25255 2.29146L1.18188 2.2207L1.11122 2.14995C0.550226 2.71028 0.23431 3.47064 0.233252 4.26354L0.333252 4.26367ZM1.18188 2.2207L1.25254 2.29147C1.77612 1.76864 2.48589 1.475 3.22583 1.475V1.375V1.275C2.43291 1.275 1.67231 1.58966 1.11122 2.14994L1.18188 2.2207ZM3.22583 1.375V1.475H14.7161V1.375V1.275H3.22583V1.375ZM20.177 6.53028L20.1823 6.63013C20.6572 6.60472 21.1232 6.76823 21.4775 7.08527L21.5442 7.01074L21.6109 6.93622C21.217 6.58382 20.6993 6.40219 20.1717 6.43042L20.177 6.53028ZM21.5442 7.01074L21.4781 7.08576C21.6568 7.24328 21.8025 7.43479 21.9064 7.6491L21.9963 7.60547L22.0863 7.56185C21.9708 7.3236 21.8089 7.11075 21.6103 6.93572L21.5442 7.01074ZM21.9963 7.60547L21.9064 7.64909C22.0102 7.86335 22.0701 8.09656 22.083 8.33453L22.1829 8.3291L22.2827 8.32367C22.2683 8.05941 22.2019 7.80022 22.0863 7.56185L21.9963 7.60547ZM22.1829 8.3291L22.083 8.33452C22.0959 8.57233 22.0613 8.81042 21.9813 9.03476L22.0754 9.06836L22.1696 9.10196C22.2586 8.85265 22.2971 8.58803 22.2827 8.32368L22.1829 8.3291ZM22.0754 9.06836L21.9813 9.03474C21.9012 9.25918 21.7773 9.4657 21.6168 9.64157L21.6907 9.70899L21.7645 9.7764C21.9431 9.58078 22.0806 9.35124 22.1696 9.10198L22.0754 9.06836ZM21.6907 9.70899L21.6163 9.64217L15.1905 16.7974L15.2649 16.8643L15.3393 16.9311L21.7651 9.7758L21.6907 9.70899ZM15.2649 16.8643L15.1911 16.7967C15.1523 16.8392 15.1025 16.8708 15.0476 16.888L15.0774 16.9834L15.1072 17.0788C15.1958 17.0512 15.2759 17.0003 15.3387 16.9318L15.2649 16.8643ZM15.0774 16.9834L15.0467 16.8882L12.5564 17.6919L12.5872 17.7871L12.6179 17.8823L15.1081 17.0786L15.0774 16.9834ZM12.5872 17.7871L12.5584 17.6913C12.508 17.7064 12.4557 17.7143 12.4032 17.7145L12.4036 17.8145L12.4039 17.9145C12.4758 17.9142 12.5472 17.9035 12.6159 17.8829L12.5872 17.7871ZM12.4036 17.8145L12.402 17.7145C12.3275 17.7156 12.2531 17.6995 12.1847 17.668L12.1428 17.7588L12.1009 17.8496C12.1958 17.8934 12.2999 17.9161 12.4051 17.9144L12.4036 17.8145ZM12.1428 17.7588L12.1847 17.668C12.116 17.6363 12.0553 17.5903 12.008 17.533L11.9309 17.5967L11.8538 17.6603C11.9211 17.7418 12.0063 17.8059 12.1009 17.8496L12.1428 17.7588ZM11.9309 17.5967L12.008 17.533C11.9607 17.4756 11.9269 17.4076 11.9089 17.3344L11.8118 17.3584L11.7147 17.3824C11.7397 17.4837 11.7868 17.5791 11.8538 17.6603L11.9309 17.5967ZM11.8118 17.3584L11.9089 17.3344C11.8909 17.2616 11.8895 17.1855 11.9048 17.1123L11.8069 17.0918L11.709 17.0713C11.6875 17.1741 11.6896 17.2806 11.7147 17.3824L11.8118 17.3584ZM11.8069 17.0918L11.9048 17.1119L12.4332 14.5397L12.3352 14.5195L12.2373 14.4994L11.7089 17.0717L11.8069 17.0918ZM12.3352 14.5195L12.4332 14.5396C12.4447 14.4834 12.4707 14.4314 12.5086 14.3887L12.4338 14.3223L12.3591 14.2559C12.2977 14.325 12.2558 14.409 12.2372 14.4995L12.3352 14.5195ZM12.4338 14.3223L12.5082 14.3891L18.9438 7.22111L18.8694 7.1543L18.795 7.08749L12.3594 14.2555L12.4338 14.3223ZM18.8694 7.1543L18.9436 7.22128C19.2621 6.86825 19.7076 6.6556 20.1824 6.63013L20.177 6.53028L20.1716 6.43042C19.6441 6.45872 19.149 6.69503 18.7951 7.08732L18.8694 7.1543ZM12.7336 16.833L12.7643 16.9282L14.57 16.3462L14.5393 16.251L14.5086 16.1558L12.703 16.7378L12.7336 16.833ZM14.5393 16.251L14.6061 16.1766L13.1823 14.8982L13.1155 14.9727L13.0487 15.0471L14.4725 16.3254L14.5393 16.251ZM13.1155 14.9727L13.0175 14.9526L12.6357 16.8129L12.7336 16.833L12.8316 16.8531L13.2134 14.9928L13.1155 14.9727ZM20.2122 7.41992L20.2094 7.31996C19.9168 7.32817 19.6388 7.44901 19.4324 7.65595L19.5032 7.72656L19.574 7.79718C19.7445 7.62624 19.974 7.52664 20.215 7.51988L20.2122 7.41992ZM19.5032 7.72656L19.4289 7.65966L13.5314 14.2114L13.6057 14.2783L13.68 14.3452L19.5775 7.79347L19.5032 7.72656ZM13.6057 14.2783L13.539 14.3528L15.0927 15.7454L15.1594 15.6709L15.2262 15.5964L13.6725 14.2039L13.6057 14.2783ZM15.1594 15.6709L15.2338 15.7378L21.1273 9.18307L21.053 9.11621L20.9786 9.04935L15.0851 15.604L15.1594 15.6709ZM21.053 9.11621L21.1309 9.17893C21.3143 8.95117 21.4039 8.66151 21.3802 8.36984L21.2805 8.37793L21.1808 8.38602C21.2004 8.62644 21.1265 8.86546 20.9751 9.0535L21.053 9.11621ZM21.2805 8.37793L21.3802 8.36982C21.3565 8.07852 21.2221 7.80731 21.0045 7.6121L20.9377 7.68653L20.871 7.76095C21.0504 7.92197 21.1613 8.14571 21.1808 8.38604L21.2805 8.37793ZM20.9377 7.68653L21.0045 7.61207C20.7868 7.41686 20.5019 7.31181 20.2094 7.31996L20.2122 7.41992L20.2149 7.51989C20.4561 7.51317 20.6912 7.59979 20.871 7.76098L20.9377 7.68653ZM11.1643 11.6367L11.1643 11.7367C11.2505 11.7367 11.3331 11.7712 11.3944 11.8324L11.4651 11.7617L11.5358 11.691C11.4374 11.5926 11.304 11.5367 11.1643 11.5367L11.1643 11.6367ZM11.4651 11.7617L11.3944 11.8324C11.4556 11.8937 11.4901 11.9763 11.4901 12.0625L11.5901 12.0625L11.6901 12.0625C11.6901 11.9228 11.6342 11.7894 11.5358 11.691L11.4651 11.7617ZM11.5901 12.0625H11.4901C11.4901 12.1486 11.4556 12.2313 11.3944 12.2926L11.4651 12.3633L11.5358 12.434C11.6342 12.3356 11.6901 12.2022 11.6901 12.0625H11.5901ZM11.4651 12.3633L11.3944 12.2926C11.3331 12.3538 11.2505 12.3883 11.1643 12.3883L11.1643 12.4883L11.1643 12.5883C11.304 12.5883 11.4374 12.5324 11.5358 12.434L11.4651 12.3633ZM11.1643 12.4883V12.3883H4.052V12.4883V12.5883H11.1643V12.4883ZM4.052 12.4883L4.05202 12.3883C3.96585 12.3883 3.88319 12.3538 3.82193 12.2926L3.75122 12.3633L3.68051 12.434C3.77894 12.5324 3.91233 12.5883 4.05198 12.5883L4.052 12.4883ZM3.75122 12.3633L3.82195 12.2926C3.76069 12.2313 3.72622 12.1486 3.72622 12.0625H3.62622H3.52622C3.52622 12.2022 3.58214 12.3356 3.68049 12.434L3.75122 12.3633ZM3.62622 12.0625L3.72622 12.0625C3.72624 11.9763 3.76068 11.8937 3.82193 11.8324L3.75122 11.7617L3.68051 11.691C3.58208 11.7894 3.52625 11.9228 3.52622 12.0625L3.62622 12.0625ZM3.75122 11.7617L3.82193 11.8324C3.88319 11.7712 3.96585 11.7367 4.05202 11.7367L4.052 11.6367L4.05198 11.5367C3.91233 11.5368 3.77894 11.5926 3.68051 11.691L3.75122 11.7617ZM4.052 11.6367V11.7367H11.1643V11.6367V11.5367H4.052V11.6367ZM13.8899 8.37305L13.8899 8.47305C13.976 8.47307 14.0587 8.5075 14.12 8.56876L14.1907 8.49805L14.2614 8.42734C14.163 8.32891 14.0296 8.27308 13.8899 8.27305L13.8899 8.37305ZM14.1907 8.49805L14.12 8.56876C14.1812 8.63001 14.2157 8.71268 14.2157 8.79885L14.3157 8.79883L14.4157 8.79881C14.4156 8.65915 14.3598 8.52577 14.2614 8.42734L14.1907 8.49805ZM14.3157 8.79883H14.2157C14.2157 8.88494 14.1812 8.96762 14.1199 9.02892L14.1907 9.09961L14.2614 9.1703C14.3598 9.07189 14.4157 8.93853 14.4157 8.79883H14.3157ZM14.1907 9.09961L14.12 9.0289C14.0587 9.09016 13.976 9.12459 13.8899 9.12461L13.8899 9.22461L13.8899 9.32461C14.0296 9.32458 14.163 9.26876 14.2614 9.17032L14.1907 9.09961ZM13.8899 9.22461V9.12461H4.052V9.22461V9.32461H13.8899V9.22461ZM4.052 9.22461L4.05202 9.12461C3.96585 9.12459 3.88319 9.09016 3.82193 9.0289L3.75122 9.09961L3.68051 9.17032C3.77894 9.26876 3.91233 9.32458 4.05198 9.32461L4.052 9.22461ZM3.75122 9.09961L3.82195 9.02892C3.76069 8.96762 3.72622 8.88494 3.72622 8.79883H3.62622H3.52622C3.52622 8.93853 3.58214 9.07189 3.68049 9.1703L3.75122 9.09961ZM3.62622 8.79883L3.72622 8.79885C3.72624 8.71268 3.76068 8.63001 3.82193 8.56876L3.75122 8.49805L3.68051 8.42734C3.58208 8.52577 3.52625 8.65915 3.52622 8.79881L3.62622 8.79883ZM3.75122 8.49805L3.82193 8.56876C3.88319 8.5075 3.96585 8.47307 4.05202 8.47305L4.052 8.37305L4.05198 8.27305C3.91233 8.27308 3.77894 8.3289 3.68051 8.42734L3.75122 8.49805ZM4.052 8.37305V8.47305H13.8899V8.37305V8.27305H4.052V8.37305ZM13.8899 5.11133L13.8899 5.21133C13.976 5.21135 14.0587 5.24578 14.12 5.30704L14.1907 5.23633L14.2614 5.16562C14.163 5.06719 14.0296 5.01136 13.8899 5.01133L13.8899 5.11133ZM14.1907 5.23633L14.12 5.30704C14.1812 5.3683 14.2157 5.45096 14.2157 5.53713L14.3157 5.53711L14.4157 5.53709C14.4156 5.39744 14.3598 5.26405 14.2614 5.16562L14.1907 5.23633ZM14.3157 5.53711H14.2157C14.2157 5.62323 14.1812 5.7059 14.1199 5.7672L14.1907 5.83789L14.2614 5.90858C14.3598 5.81017 14.4157 5.67681 14.4157 5.53711H14.3157ZM14.1907 5.83789L14.12 5.76718C14.0587 5.82844 13.976 5.86287 13.8899 5.86289L13.8899 5.96289L13.8899 6.06289C14.0296 6.06286 14.163 6.00704 14.2614 5.9086L14.1907 5.83789ZM13.8899 5.96289V5.86289H4.052V5.96289V6.06289H13.8899V5.96289ZM4.052 5.96289L4.05202 5.86289C3.96585 5.86287 3.88319 5.82844 3.82193 5.76718L3.75122 5.83789L3.68051 5.9086C3.77894 6.00704 3.91233 6.06286 4.05198 6.06289L4.052 5.96289ZM3.75122 5.83789L3.82195 5.7672C3.76069 5.7059 3.72622 5.62322 3.72622 5.53711H3.62622H3.52622C3.52622 5.67681 3.58214 5.81017 3.68049 5.90858L3.75122 5.83789ZM3.62622 5.53711L3.72622 5.53713C3.72624 5.45096 3.76068 5.3683 3.82193 5.30704L3.75122 5.23633L3.68051 5.16562C3.58208 5.26405 3.52625 5.39744 3.52622 5.53709L3.62622 5.53711ZM3.75122 5.23633L3.82193 5.30704C3.88319 5.24578 3.96585 5.21135 4.05202 5.21133L4.052 5.11133L4.05198 5.01133C3.91233 5.01136 3.77894 5.06719 3.68051 5.16562L3.75122 5.23633ZM4.052 5.11133V5.21133H13.8899V5.11133V5.01133H4.052V5.11133Z" fill="#DD2D4A"/>
</g>
<defs>
<clipPath id="clip0_5368_4018">
<rect width="23" height="22" fill="white" transform="translate(0.219971)"/>
</clipPath>
</defs>
</svg>
