<svg width="32" height="33" viewBox="0 0 32 33" fill="none" xmlns="http://www.w3.org/2000/svg">
<g clip-path="url(#clip0_5368_10560)">
<path d="M27.0382 12.7667C27.1491 12.7868 27.2516 12.8394 27.3332 12.9171C30.9337 16.3925 31.6226 22.1259 26.0627 26.8243C23.319 28.9906 18.8493 30.1521 15.3537 30.1154V31.8077C15.3539 32.0114 15.3018 32.2117 15.2013 32.3888C15.1008 32.5661 14.9555 32.7142 14.7804 32.8185C14.6053 32.9228 14.4061 32.9795 14.2023 32.9835C13.9985 32.9875 13.7974 32.9383 13.6183 32.8409L10.2785 31.0109C10.1481 30.9367 10.0519 30.8144 10.0109 30.67C9.97 30.5257 9.98766 30.3709 10.0597 30.2394C10.1319 30.1079 10.253 30.0101 10.3966 29.9669C10.5402 29.9239 10.6947 29.939 10.8273 30.0089L14.1652 31.838L14.2111 29.5099C14.2117 29.4312 14.2281 29.3533 14.2599 29.2814C14.2919 29.2093 14.3387 29.1443 14.3966 29.0909C14.4546 29.0376 14.5234 28.9967 14.5978 28.9708C14.6721 28.945 14.7508 28.9347 14.8293 28.9406C22.2977 29.2337 27.8836 24.4545 28.8381 20.7296C25.1485 24.4036 17.1302 24.966 15.2082 24.6779C15.0667 24.6643 14.9356 24.5984 14.84 24.4933C14.7443 24.3881 14.6906 24.2508 14.6906 24.1085V21.3478L4.25114 25.7775C4.19507 25.8036 4.14736 25.8445 4.11247 25.8956C4.07763 25.9467 4.05685 26.0058 4.0529 26.0675C4.04902 26.1292 4.06187 26.1912 4.09001 26.2462C4.11821 26.3012 4.16074 26.348 4.21306 26.381L8.54118 28.7511C8.6712 28.8255 8.7671 28.9487 8.80778 29.0929C8.84832 29.2369 8.83085 29.3913 8.75895 29.5226C8.68697 29.6538 8.56631 29.7518 8.42302 29.795C8.27967 29.8383 8.12498 29.8235 7.99235 29.754L3.67106 27.3878C3.43165 27.2508 3.23518 27.0497 3.1027 26.8077C2.97028 26.5658 2.90754 26.2922 2.92106 26.0167C2.93467 25.7411 3.02415 25.474 3.17985 25.2462C3.33554 25.0185 3.55116 24.8384 3.8029 24.7257L14.1916 20.2687C14.3705 20.1938 14.5649 20.1639 14.758 20.1818C14.9513 20.1997 15.1377 20.2646 15.3 20.3712C15.4622 20.4778 15.5955 20.6228 15.6886 20.7931C15.7817 20.9633 15.8319 21.1538 15.8341 21.3478V23.5665C18.4127 23.6369 22.0448 23.1719 24.4347 22.2013C24.8134 21.6478 26.4901 18.8735 26.3586 13.3351C26.3586 13.2221 26.3911 13.111 26.4533 13.0167C26.5155 12.9224 26.6043 12.8483 26.7082 12.8038C26.812 12.7594 26.9271 12.7466 27.0382 12.7667ZM27.4884 14.8488C27.4588 17.054 27.0251 19.2353 26.2091 21.2843C27.2619 20.6435 28.2055 19.8383 29.0041 18.8995C28.8933 17.4329 28.3678 16.0278 27.4884 14.8488ZM17.798 0.984497C18.0008 0.979471 18.2018 1.02622 18.381 1.12122L28.3283 6.57532C28.5677 6.71241 28.7642 6.91335 28.8966 7.1554C29.029 7.39735 29.0928 7.67095 29.0793 7.94641C29.0656 8.22199 28.9752 8.48912 28.8195 8.71692C28.6638 8.94449 28.4481 9.12471 28.1965 9.23743L17.8088 13.6945C17.6297 13.7695 17.4347 13.7992 17.2414 13.7814C17.048 13.7635 16.8616 13.6986 16.6994 13.5919C16.5372 13.4853 16.4038 13.3403 16.3107 13.17C16.2176 12.9997 16.1674 12.8085 16.1652 12.6144V10.3966C13.5866 10.3255 9.95428 10.7905 7.56462 11.7618C7.18573 12.3158 5.50923 15.0901 5.64079 20.6281C5.64233 20.7412 5.61045 20.8524 5.54899 20.9474C5.48744 21.0425 5.39905 21.1173 5.29509 21.1622C5.19114 21.2072 5.07642 21.2206 4.96501 21.2003C4.85364 21.18 4.75055 21.1276 4.66911 21.049C-0.242021 16.5565 1.42284 8.524 9.30681 5.12512C9.44498 5.06653 9.60085 5.06403 9.7404 5.11926C9.87995 5.17451 9.99226 5.28275 10.0529 5.42004C10.1135 5.55735 10.1178 5.71328 10.0646 5.85364C10.0115 5.99388 9.90496 6.10737 9.76872 6.17004C8.66624 6.64676 7.6294 7.26344 6.68376 8.00403C4.76811 9.68865 3.58749 11.442 3.1613 13.2325C6.86124 9.55783 14.8455 9.00096 16.7912 9.28528C16.9327 9.29878 17.0637 9.3647 17.1593 9.46985C17.255 9.57496 17.3086 9.71154 17.3088 9.85364V12.6144L27.7482 8.18567C27.8044 8.15955 27.8529 8.11867 27.8879 8.0675C27.9227 8.01639 27.9426 7.9564 27.9465 7.89465C27.9503 7.83289 27.9376 7.77101 27.9093 7.71594C27.8811 7.66092 27.8387 7.61407 27.7863 7.58118L17.8341 2.12512L17.7883 4.45325C17.7877 4.53198 17.7713 4.60975 17.7394 4.68176C17.7075 4.75385 17.6607 4.81879 17.6027 4.87219C17.5446 4.92561 17.4761 4.96647 17.4015 4.99231C17.327 5.01815 17.2478 5.0286 17.1691 5.02258C15.7795 4.91341 13.3147 5.04124 11.9679 5.40051C11.8222 5.4363 11.6682 5.41374 11.5392 5.33704C11.4101 5.26015 11.3164 5.13475 11.2785 4.98938C11.2407 4.84413 11.2611 4.68971 11.3361 4.55969C11.4112 4.42955 11.535 4.33402 11.6799 4.29407C12.9511 3.95674 15.3312 3.8059 16.6457 3.8468V2.1554C16.6475 1.95249 16.7009 1.75326 16.8019 1.57727C16.903 1.40119 17.0484 1.25441 17.2228 1.15051C17.3972 1.04668 17.5952 0.989557 17.798 0.984497ZM5.79118 12.6788C4.73829 13.3197 3.79396 14.1248 2.99528 15.0636C3.10608 16.5303 3.63254 17.9353 4.51188 19.1144C4.54156 16.9091 4.9752 14.7278 5.79118 12.6788Z" fill="#DD2D4A"/>
</g>
<defs>
<clipPath id="clip0_5368_10560">
<rect width="32" height="32" fill="white" transform="translate(0 0.981812)"/>
</clipPath>
</defs>
</svg>
