<svg width="23" height="24" viewBox="0 0 23 24" fill="none" xmlns="http://www.w3.org/2000/svg">
<g clip-path="url(#clip0_5368_4034)">
<path d="M20.2135 10.6226C19.9478 10.6226 19.7325 10.8378 19.7325 11.1035V18.7319C19.7325 19.5274 19.0853 20.1747 18.2898 20.1747H14.9233V16.1358C14.9233 15.3403 14.2761 14.6931 13.4805 14.6931H9.63308C8.83752 14.6931 8.19026 15.3403 8.19026 16.1358V20.1747H4.82379C4.02823 20.1747 3.38108 19.5274 3.38108 18.7319V11.1035C3.38108 10.838 3.16579 10.6226 2.90013 10.6226C2.63448 10.6226 2.41919 10.8378 2.41919 11.1035V18.7319C2.41919 20.0578 3.49787 21.1365 4.82378 21.1365H8.6712C8.93685 21.1365 9.15215 20.9212 9.15215 20.6555V16.1357C9.15215 15.8706 9.36786 15.6548 9.63309 15.6548H13.4805C13.7457 15.6548 13.9614 15.8705 13.9614 16.1357V20.6555C13.9614 20.9211 14.1767 21.1365 14.4424 21.1365H18.2898C19.6157 21.1365 20.6945 20.0578 20.6945 18.7319V11.1035C20.6944 10.8378 20.479 10.6226 20.2135 10.6226Z" fill="#DD2D4A"/>
<path d="M21.6537 7.13661C21.6531 7.01439 21.6064 6.89227 21.5131 6.79899L18.6273 3.00355C18.5371 2.91338 18.4148 2.86279 18.2873 2.86279H4.82148C4.69393 2.86279 4.57159 2.91348 4.48141 3.00355L1.59577 6.79899C1.49494 6.89993 1.45001 7.03419 1.45746 7.16622L1.45667 8.8576C1.45667 10.4486 2.75117 11.7431 4.3423 11.7431C5.34507 11.7431 6.22965 11.2288 6.7469 10.4503C7.26425 11.2288 8.14883 11.7431 9.15149 11.7431C10.1541 11.7431 11.0387 11.2288 11.5561 10.4503C12.0734 11.2288 12.958 11.7431 13.9607 11.7431C14.9633 11.7431 15.848 11.2288 16.3653 10.4503C16.8826 11.2288 17.7672 11.7431 18.7699 11.7431C20.361 11.7431 21.6555 10.4488 21.6555 8.8576L21.6537 7.13661ZM5.02069 3.82459H18.0881L20.0119 6.65815H3.09693L5.02069 3.82459ZM4.34241 10.7813C3.28172 10.7813 2.41876 9.9183 2.41876 8.85762L2.41688 7.62003H6.2643L6.26617 8.85762C6.26618 9.9182 5.40321 10.7813 4.34241 10.7813ZM9.15171 10.7813C8.09102 10.7813 7.22805 9.9183 7.22805 8.85762L7.22618 7.62003H11.0735L11.0754 8.85762C11.0754 9.9182 10.2125 10.7813 9.15171 10.7813ZM13.961 10.7813C12.9003 10.7813 12.0373 9.9183 12.0373 8.85762L12.0355 7.62003H15.8829L15.8848 8.85762C15.8847 9.9182 15.0217 10.7813 13.961 10.7813ZM20.6939 8.8575C20.6939 9.91818 19.831 10.7811 18.7703 10.7811C17.7096 10.7811 16.8466 9.91817 16.8466 8.8575L16.8448 7.6199H20.6922L20.6939 8.8575Z" fill="#DD2D4A"/>
<path d="M21.8756 6.75C21.8756 9.375 18.5006 11.625 18.5006 11.625C18.5006 11.625 15.1256 9.375 15.1256 6.75C15.1256 5.85489 15.4812 4.99645 16.1141 4.36351C16.7471 3.73058 17.6055 3.375 18.5006 3.375C19.3957 3.375 20.2542 3.73058 20.8871 4.36351C21.52 4.99645 21.8756 5.85489 21.8756 6.75Z" fill="white" stroke="white" stroke-width="3.5" stroke-linecap="round" stroke-linejoin="round"/>
<path d="M21.8756 6.75049C21.8756 9.37549 18.5006 11.6255 18.5006 11.6255C18.5006 11.6255 15.1256 9.37549 15.1256 6.75049C15.1256 5.85538 15.4812 4.99694 16.1141 4.364C16.7471 3.73107 17.6055 3.37549 18.5006 3.37549C19.3957 3.37549 20.2542 3.73107 20.8871 4.364C21.52 4.99694 21.8756 5.85538 21.8756 6.75049Z" stroke="#DD2D4A" stroke-linecap="round" stroke-linejoin="round"/>
<path d="M18.5006 7.40117C18.832 7.40117 19.1006 7.13254 19.1006 6.80117C19.1006 6.4698 18.832 6.20117 18.5006 6.20117C18.1693 6.20117 17.9006 6.4698 17.9006 6.80117C17.9006 7.13254 18.1693 7.40117 18.5006 7.40117Z" fill="#DD2D4A" stroke="#DD2D4A" stroke-width="0.4" stroke-linecap="round" stroke-linejoin="round"/>
</g>
<defs>
<clipPath id="clip0_5368_4034">
<rect width="22.89" height="22.89" fill="white" transform="translate(0.109985 0.555176)"/>
</clipPath>
</defs>
</svg>
