<svg width="41" height="41" viewBox="0 0 41 41" fill="none" xmlns="http://www.w3.org/2000/svg">
<path fill-rule="evenodd" clip-rule="evenodd" d="M25.4995 16.4873H19.4995C19.0955 16.4873 18.7295 16.2433 18.5755 15.8693C18.4195 15.4953 18.5055 15.0673 18.7915 14.7793L23.0855 10.4873H19.4995C18.9475 10.4873 18.4995 10.0393 18.4995 9.4873C18.4995 8.9353 18.9475 8.4873 19.4995 8.4873H25.4995C25.9035 8.4873 26.2695 8.73131 26.4235 9.1053C26.5795 9.4793 26.4935 9.9073 26.2075 10.1953L21.9135 14.4873H25.4995C26.0515 14.4873 26.4995 14.9353 26.4995 15.4873C26.4995 16.0393 26.0515 16.4873 25.4995 16.4873ZM12.4995 26.4873C10.7875 26.4873 9.43951 25.6053 8.60551 23.9353C8.35751 23.4413 8.55751 22.8393 9.05151 22.5933C9.54551 22.3453 10.1475 22.5473 10.3935 23.0393C10.8935 24.0413 11.5435 24.4873 12.4995 24.4873C13.4555 24.4873 14.1055 24.0413 14.6055 23.0393C14.8515 22.5473 15.4535 22.3453 15.9475 22.5933C16.4415 22.8393 16.6415 23.4413 16.3935 23.9353C15.5595 25.6053 14.2115 26.4873 12.4995 26.4873ZM26.4995 26.4873C24.7875 26.4873 23.4395 25.6053 22.6055 23.9353C22.3575 23.4413 22.5575 22.8393 23.0515 22.5933C23.5475 22.3453 24.1455 22.5473 24.3935 23.0393C24.8935 24.0413 25.5435 24.4873 26.4995 24.4873C27.4555 24.4873 28.1055 24.0413 28.6055 23.0393C28.8535 22.5473 29.4515 22.3453 29.9475 22.5933C30.4415 22.8393 30.6415 23.4413 30.3935 23.9353C29.5595 25.6053 28.2115 26.4873 26.4995 26.4873ZM19.4995 30.4873C17.8635 30.4873 16.3335 30.7293 14.9455 31.2033C14.7775 31.2593 14.6435 31.3793 14.5655 31.5373C14.4895 31.6953 14.4775 31.8733 14.5355 32.0413C14.6255 32.3093 14.8755 32.4873 15.1595 32.4873H23.8395C24.2055 32.4873 24.4995 32.1913 24.4995 31.8273C24.4995 31.5453 24.3215 31.2953 24.0535 31.2033C22.6675 30.7293 21.1335 30.4873 19.4995 30.4873ZM23.8395 34.4873H15.1595C14.0215 34.4873 13.0095 33.7653 12.6415 32.6893C12.4135 32.0173 12.4575 31.2953 12.7695 30.6573C13.0835 30.0193 13.6255 29.5413 14.2975 29.3113C17.4855 28.2173 21.5075 28.2173 24.7035 29.3113C25.7775 29.6813 26.4995 30.6913 26.4995 31.8273C26.4995 33.2933 25.3075 34.4873 23.8395 34.4873ZM31.9135 10.4873H32.4515C32.3695 10.3913 32.2855 10.2933 32.2015 10.1993L31.9135 10.4873ZM19.4995 4.4873C10.1255 4.4873 2.49951 12.1133 2.49951 21.4873C2.49951 30.8613 10.1255 38.4873 19.4995 38.4873C28.8735 38.4873 36.4995 30.8613 36.4995 21.4873C36.4995 18.1853 35.5535 15.0993 33.9155 12.4873H29.4995C29.0955 12.4873 28.7295 12.2433 28.5755 11.8693C28.4195 11.4953 28.5055 11.0673 28.7915 10.7793L30.7875 8.78531C27.7835 6.11331 23.8275 4.4873 19.4995 4.4873ZM19.4995 40.4873C9.02351 40.4873 0.499512 31.9633 0.499512 21.4873C0.499512 11.0113 9.02351 2.4873 19.4995 2.4873C24.3795 2.4873 28.8335 4.3353 32.2035 7.3693L37.0855 2.4873H29.4995C28.9475 2.4873 28.4995 2.0393 28.4995 1.4873C28.4995 0.935305 28.9475 0.487305 29.4995 0.487305H39.4995C39.9035 0.487305 40.2695 0.731305 40.4235 1.1053C40.5795 1.4793 40.4935 1.9073 40.2075 2.1953L33.6175 8.7833C34.1035 9.3253 34.5595 9.8933 34.9835 10.4873H39.4995C40.0515 10.4873 40.4995 10.9353 40.4995 11.4873C40.4995 12.0393 40.0515 12.4873 39.4995 12.4873H36.2295C37.6775 15.1673 38.4995 18.2333 38.4995 21.4873C38.4995 31.9633 29.9755 40.4873 19.4995 40.4873Z" fill="#DD2D4A"/>
</svg>
