<svg width="24" height="24" viewBox="0 0 24 24" fill="none" xmlns="http://www.w3.org/2000/svg">
<path d="M19.0963 9.87515H19.0449V9.17183C19.0449 5.13058 15.7689 1.85449 11.7276 1.85449C7.6863 1.85449 4.41026 5.13058 4.41026 9.17183V9.87515H4.10218C2.97248 9.87515 2.09954 10.8764 2.09954 12.0319V15.2412C2.07109 16.361 2.95587 17.2919 4.07569 17.3204C4.08454 17.3206 4.09334 17.3208 4.10218 17.3208H6.00211C6.27122 17.3082 6.47914 17.0798 6.46646 16.8106C6.46602 16.801 6.46529 16.7913 6.46425 16.7817V10.4913C6.46425 10.1832 6.28454 9.8751 6.00211 9.8751H5.43726V9.17178C5.43726 5.69774 8.25356 2.88144 11.7276 2.88144C15.2016 2.88144 18.0179 5.69774 18.0179 9.17178V9.8751H17.4531C17.1707 9.8751 16.9909 10.1832 16.9909 10.4913V16.7817C16.9623 17.0495 17.1562 17.2899 17.4241 17.3186C17.4337 17.3196 17.4434 17.3204 17.4531 17.3208H18.0436L17.9922 17.3978C17.2218 18.4217 16.0129 19.0214 14.7315 19.0153C14.451 17.6398 13.1085 16.7522 11.7331 17.0327C10.5568 17.2726 9.70874 18.3027 9.69926 19.5032C9.71331 20.9111 10.8587 22.045 12.2667 22.0449C12.9637 22.0336 13.6281 21.7476 14.1153 21.249C14.444 20.9124 14.6594 20.4815 14.7315 20.0166C16.3362 20.0227 17.8494 19.2708 18.8138 17.9883L19.3017 17.2694C20.4057 17.1924 21.0989 16.4992 21.0989 15.4978V12.2885C21.0989 11.1846 20.2773 9.87515 19.0963 9.87515ZM5.43726 16.2939H4.10218C3.54932 16.2804 3.11204 15.8213 3.12551 15.2685C3.12575 15.2594 3.1261 15.2503 3.12654 15.2412V12.0318C3.12654 11.4413 3.53733 10.9021 4.10218 10.9021H5.43726V16.2939ZM13.3708 20.5302C13.0863 20.8387 12.6865 21.0154 12.2668 21.018C11.4315 21.0048 10.7536 20.3382 10.7263 19.5032C10.726 18.6666 11.4039 17.9881 12.2405 17.9878C13.0771 17.9874 13.7556 18.6654 13.7559 19.502V19.5032C13.7773 19.8844 13.6375 20.2571 13.3708 20.5302ZM20.0719 15.4979C20.0719 16.1911 19.4044 16.2939 19.0963 16.2939H18.0179V10.9021H19.0963C19.6611 10.9021 20.0719 11.6981 20.0719 12.2886V15.4979Z" fill="#DD2D4A"/>
</svg>
