<svg width="12" height="13" viewBox="0 0 12 13" fill="none" xmlns="http://www.w3.org/2000/svg">
<path d="M5.14286 7.83908H0.857143C0.614286 7.83908 0.410714 7.75693 0.246429 7.59265C0.0821429 7.42836 0 7.22479 0 6.98193C0 6.73908 0.0821429 6.53551 0.246429 6.37122C0.410714 6.20693 0.614286 6.12479 0.857143 6.12479H5.14286V1.83908C5.14286 1.59622 5.225 1.39265 5.38929 1.22836C5.55357 1.06408 5.75714 0.981934 6 0.981934C6.24286 0.981934 6.44643 1.06408 6.61071 1.22836C6.775 1.39265 6.85714 1.59622 6.85714 1.83908V6.12479H11.1429C11.3857 6.12479 11.5893 6.20693 11.7536 6.37122C11.9179 6.53551 12 6.73908 12 6.98193C12 7.22479 11.9179 7.42836 11.7536 7.59265C11.5893 7.75693 11.3857 7.83908 11.1429 7.83908H6.85714V12.1248C6.85714 12.3676 6.775 12.5712 6.61071 12.7355C6.44643 12.8998 6.24286 12.9819 6 12.9819C5.75714 12.9819 5.55357 12.8998 5.38929 12.7355C5.225 12.5712 5.14286 12.3676 5.14286 12.1248V7.83908Z" fill="#38383A"/>
</svg>
