<svg width="28" height="28" viewBox="0 0 28 28" fill="none" xmlns="http://www.w3.org/2000/svg">
<g clip-path="url(#clip0_5368_4346)">
<path d="M13.9554 27.2339C21.3423 27.2339 27.3304 21.2457 27.3304 13.8589C27.3304 6.47208 21.3423 0.483887 13.9554 0.483887C6.56864 0.483887 0.580444 6.47208 0.580444 13.8589C0.580444 21.2457 6.56864 27.2339 13.9554 27.2339Z" fill="#DD2D4A"/>
<path d="M19.8542 7.96188C18.4627 6.55644 16.6147 5.69453 14.6436 5.53162C12.6725 5.3687 10.7081 5.91551 9.10468 7.07342C7.50126 8.23132 6.36439 9.92409 5.89914 11.8464C5.43389 13.7687 5.67088 15.794 6.56737 17.5569L5.68735 21.8293C5.67822 21.8718 5.67796 21.9158 5.68659 21.9584C5.69522 22.0011 5.71256 22.0414 5.73751 22.0771C5.77406 22.1311 5.82624 22.1728 5.88707 22.1964C5.94791 22.22 6.0145 22.2245 6.07796 22.2093L10.2653 21.2168C12.0232 22.0906 14.0342 22.3124 15.9404 21.8426C17.8465 21.3729 19.5242 20.2421 20.6749 18.6515C21.8256 17.0609 22.3746 15.1136 22.2243 13.1562C22.0741 11.1988 21.2342 9.35819 19.8542 7.96188ZM18.5486 18.3822C17.5858 19.3423 16.346 19.9761 15.0039 20.1943C13.6618 20.4124 12.2851 20.2039 11.0678 19.5981L10.4841 19.3094L7.91703 19.9173L7.92463 19.8854L8.45659 17.3016L8.17085 16.7377C7.54885 15.5161 7.32943 14.129 7.54402 12.7751C7.75862 11.4212 8.39622 10.1699 9.36548 9.20059C10.5834 7.98307 12.235 7.29911 13.9571 7.29911C15.6791 7.29911 17.3307 7.98307 18.5486 9.20059C18.559 9.21248 18.5702 9.22365 18.5821 9.23403C19.7849 10.4547 20.4563 12.1013 20.4501 13.815C20.4438 15.5287 19.7603 17.1704 18.5486 18.3822Z" fill="white"/>
<path d="M18.3209 16.4866C18.0063 16.9821 17.5093 17.5885 16.8846 17.739C15.7903 18.0034 14.1109 17.7481 12.021 15.7996L11.9952 15.7768C10.1576 14.073 9.68038 12.655 9.7959 11.5303C9.85973 10.8919 10.3917 10.3143 10.8401 9.93741C10.9109 9.87691 10.995 9.83384 11.0855 9.81163C11.176 9.78943 11.2705 9.78871 11.3613 9.80954C11.4521 9.83037 11.5368 9.87216 11.6086 9.93157C11.6804 9.99099 11.7373 10.0664 11.7748 10.1517L12.4511 11.6716C12.4951 11.7702 12.5114 11.8788 12.4983 11.9859C12.4851 12.093 12.4431 12.1945 12.3767 12.2796L12.0347 12.7234C11.9613 12.815 11.917 12.9265 11.9076 13.0435C11.8981 13.1605 11.9238 13.2777 11.9815 13.38C12.173 13.7158 12.632 14.2098 13.1412 14.6673C13.7126 15.1841 14.3464 15.6567 14.7477 15.8179C14.8551 15.8617 14.9731 15.8724 15.0866 15.8486C15.2001 15.8247 15.3039 15.7675 15.3845 15.6841L15.7812 15.2844C15.8578 15.2089 15.9529 15.1551 16.0571 15.1284C16.1612 15.1017 16.2705 15.103 16.374 15.1324L17.9805 15.5883C18.0691 15.6155 18.1503 15.6626 18.218 15.726C18.2856 15.7894 18.3378 15.8674 18.3707 15.9541C18.4035 16.0408 18.4161 16.1338 18.4075 16.2261C18.3989 16.3184 18.3693 16.4075 18.3209 16.4866Z" fill="white"/>
</g>
<defs>
<clipPath id="clip0_5368_4346">
<rect width="26.75" height="26.75" fill="white" transform="translate(0.580444 0.483887)"/>
</clipPath>
</defs>
</svg>
